M48
;Layer_Color=9474304
;FILE_FORMAT=4:4
METRIC,LZ
;TYPE=PLATED
T01F00S00C0.3000
T03F00S00C1.0000
T04F00S00C1.1000
T05F00S00C2.3500
%
T01
X00385Y00075
X00415Y00075
X00445Y00075
X0047025Y000755
X0052Y0009
X0055
X00575
X006
X006255Y0008975
X00625Y0005
X0064125Y0005475
X0067Y0005
X00675Y001
X00665Y0014
X0065Y00125
X0062Y00155
X006
X00595Y002
X0057
X00545
X0052
X00481Y0022175
X00466Y002155
X0044Y0022
X0045Y002
X004553Y00157
X004935Y0015675
X005Y0025
X004625Y00257
X00465Y00279
X004305Y002925
X0045Y00315
X004455Y00346
X00424Y00363
X003915Y0037225
X003865Y00328
X0040075
X004Y00275
X0041775Y00242
X00395Y0022
X00385Y00165
X004Y00135
X0049Y0002
X00525Y0005
X0055
X00575
X006
X0063Y0021
X0067125Y002115
X0067825Y00222
X0067Y00191
X00675Y003
X0065Y00325
X00615Y003
Y00355
X00525Y00365
X004845Y00364
X0045025Y00381
X00511Y0032825
X00525Y00275
X0038025Y003095
X003495Y003285
X003265Y0034
X00296007Y00338989
X00282002Y00338989
X00267996Y00338988
X00267995Y00352994
X00282001Y00352994
X00282Y00367
X00267994Y00366999
X00296006Y00367001
X00296007Y00352995
X002985Y00299
X002835Y0029875
X0027075Y003125
X00241Y00288
X00224375Y003025
X00215Y00335
X0020375Y0032725
Y0036725
X0018025Y003035
X00199Y002755
X00218Y0026
X002Y002
X002Y001525
X00175Y0015
X001685Y0017
X00123125Y00180375
X000965Y001765
X00075Y0015
X00125
X001Y00125
X0005
Y00075
X00025Y0005
Y001
Y0015
Y0025
X0004675Y00274
X00025Y003
X0005Y00325
X00075Y0035
X001Y00375
X0005
X0010875Y003135
X0011Y00265
X00135Y002285
X00175Y00225
X00225Y00175
X002255Y00138
X00225Y00125
Y00075
X0019925Y0006825
X002Y00025
X0025
Y0005
X0026475Y00068
X00295Y0007
X00275Y001
X00292Y0014125
X00303Y00149
Y0015825
X0033Y00165
X0036
X00375Y002
X0036225Y00248
X00324Y0026
X00326125Y00268625
X0032625Y0028825
X0035Y0007
X0038Y0009
X0033Y0004
X0017Y00105
X00125Y00075
X001Y00025
X00075Y004
X0005Y00425
X0004625Y004745
X0001625Y004675
X0007925Y0045475
X0010725Y004675
X00132Y004685
X0013725Y00448
X0015Y004
X002
X0024025Y0039825
X0024Y00425
X00248Y004395
X0023Y0047
X0026975Y0047325
X0031375Y0047575
X0031975Y004845
X003445
X00375Y0045
X00286Y00402
X001Y00525
X0005
X004Y00475
X00433Y00493
X00475Y00475
Y00425
X00425
X003985Y0041875
X0049925Y0039725
X00525Y00425
Y00475
X0065Y005
Y0045
Y004
X00625Y00425
T03
X0039464Y0002276
X0042004
X0044544Y0002276
X0047084
X0051384Y0002276
X0053924
X0056464
X0059004
X0061544
X0064084
X006288Y002296
Y00255
Y002804
X006542
Y00255
Y002296
X0036924Y0002276
X0034384
X0031844
X0029304
X0015155Y0033725
X0013155Y0033725
Y0036225
X0015155Y0036225
X001596Y004473
Y004727
X00185
Y004473
X002104
Y004727
X00212101Y00511751
X00237499Y0051175
X00262899
X00288299Y00511749
X00313699
X00339099
X00364499
X00186701Y00511751
X00389899Y00511749
X00415299
X0045485Y0051175
X0048025
X0050565Y0051175
X0053105
X0055645
X0058185
X0060725
X0063265
T04
X004045Y0010665
X004299
X004553
X004807
X005061
X005315
X005569
X005823
X006077
X006331
Y0018285
X006077
X005823
X005569
X005315
X005061
X004807
X004553
X004299
X004045
X003791
X003537
X003283
X003029
Y0010665
X003283
X003537
X003791
T05
X0010445Y0028955
Y0040995
M30
