G04*
G04 #@! TF.GenerationSoftware,Altium Limited,Altium Designer,25.5.2 (35)*
G04*
G04 Layer_Color=8388736*
%FSLAX44Y44*%
%MOMM*%
G71*
G04*
G04 #@! TF.SameCoordinates,36E1A225-4DC9-43DF-9F0C-FC386396E2DA*
G04*
G04*
G04 #@! TF.FilePolarity,Negative*
G04*
G01*
G75*
%ADD26R,0.8500X0.8500*%
%ADD38R,1.0000X1.0000*%
%ADD39R,1.0000X1.0000*%
%ADD40R,1.4000X3.6000*%
%ADD41R,1.6000X0.6500*%
%ADD42R,0.3500X0.9000*%
%ADD43R,0.9000X0.3500*%
%ADD44R,3.8000X3.8000*%
%ADD45R,2.2500X3.3500*%
%ADD46R,2.2500X1.0500*%
%ADD47R,1.1000X0.6500*%
%ADD48R,1.6000X3.4000*%
%ADD49R,0.9500X0.9500*%
%ADD50R,0.9500X0.9500*%
%ADD51R,0.8000X0.9000*%
%ADD52R,0.9000X1.0000*%
%ADD53R,1.0000X0.9000*%
%ADD54R,2.2000X1.5000*%
%ADD55R,2.4000X1.7800*%
%ADD56R,0.7500X0.9600*%
%ADD57R,1.6000X0.7000*%
%ADD58R,5.6000X1.6000*%
%ADD59R,0.5000X2.1000*%
%ADD60C,3.0000*%
%ADD61C,1.7000*%
%ADD62R,1.7000X1.7000*%
%ADD63R,1.7000X1.7000*%
%ADD64C,1.9000*%
%ADD65R,1.9000X1.9000*%
%ADD66R,2.1000X4.3000*%
%ADD67R,4.3000X2.1000*%
%ADD68C,1.6000*%
%ADD69C,3.1000*%
%ADD70C,0.1000*%
%ADD71C,0.8000*%
D26*
X194500Y367000D02*
D03*
X179500D02*
D03*
X194500Y327000D02*
D03*
X179500D02*
D03*
D38*
X471250Y346000D02*
D03*
X456250D02*
D03*
X298500Y260000D02*
D03*
X313500D02*
D03*
X243500D02*
D03*
X228500D02*
D03*
X283500Y309500D02*
D03*
X298500D02*
D03*
X260500Y402000D02*
D03*
X275500D02*
D03*
X225500Y152500D02*
D03*
X210500D02*
D03*
X455250Y86000D02*
D03*
X470250D02*
D03*
X481000Y205000D02*
D03*
X466000D02*
D03*
X430000Y85500D02*
D03*
X415000D02*
D03*
D39*
X241000Y313500D02*
D03*
Y298500D02*
D03*
X240250Y372750D02*
D03*
Y387750D02*
D03*
X123750Y228500D02*
D03*
Y213500D02*
D03*
X424000Y388500D02*
D03*
Y373500D02*
D03*
X363500Y355000D02*
D03*
Y340000D02*
D03*
X484500Y389500D02*
D03*
Y374500D02*
D03*
X670000Y165500D02*
D03*
Y180500D02*
D03*
D40*
X184250Y68000D02*
D03*
Y121000D02*
D03*
X253000D02*
D03*
Y68000D02*
D03*
D41*
X417500Y330800D02*
D03*
Y305400D02*
D03*
X471500Y292700D02*
D03*
X417500Y318100D02*
D03*
X471500Y305400D02*
D03*
Y318100D02*
D03*
Y330800D02*
D03*
X417500Y292700D02*
D03*
D42*
X284500Y328000D02*
D03*
X289500D02*
D03*
X294500D02*
D03*
Y378000D02*
D03*
X289500D02*
D03*
X284500D02*
D03*
X279500D02*
D03*
X274500D02*
D03*
X269500D02*
D03*
Y328000D02*
D03*
X264500D02*
D03*
Y378000D02*
D03*
X299500D02*
D03*
X279500Y328000D02*
D03*
X299500D02*
D03*
X274500D02*
D03*
D43*
X307000Y350500D02*
D03*
Y360500D02*
D03*
X257000Y370500D02*
D03*
Y365500D02*
D03*
Y360500D02*
D03*
X307000Y365500D02*
D03*
Y370500D02*
D03*
X257000Y340500D02*
D03*
X307000D02*
D03*
Y345500D02*
D03*
X257000D02*
D03*
Y350500D02*
D03*
X307000Y355500D02*
D03*
X257000Y335500D02*
D03*
X307000D02*
D03*
X257000Y355500D02*
D03*
D44*
X282001Y352994D02*
D03*
D45*
X38500Y190500D02*
D03*
D46*
X96500D02*
D03*
Y167500D02*
D03*
Y213500D02*
D03*
D47*
X466750Y371500D02*
D03*
Y390500D02*
D03*
X439750Y371500D02*
D03*
Y390500D02*
D03*
Y381000D02*
D03*
D48*
X88750Y249000D02*
D03*
X46750D02*
D03*
D49*
X511000Y299750D02*
D03*
Y317750D02*
D03*
X158000Y188000D02*
D03*
Y170000D02*
D03*
D50*
X364000Y294000D02*
D03*
X346000D02*
D03*
X345000Y447000D02*
D03*
X363000D02*
D03*
D51*
X193750Y314000D02*
D03*
X180250D02*
D03*
D52*
X497000Y301250D02*
D03*
Y318250D02*
D03*
X349500Y356000D02*
D03*
Y339000D02*
D03*
X143000Y187500D02*
D03*
Y170500D02*
D03*
X377500Y356000D02*
D03*
Y339000D02*
D03*
X267250Y158250D02*
D03*
Y175250D02*
D03*
X281250Y158250D02*
D03*
Y175250D02*
D03*
X676000Y245500D02*
D03*
Y262500D02*
D03*
X656000Y164500D02*
D03*
Y181500D02*
D03*
D53*
X276500Y429000D02*
D03*
X259500D02*
D03*
X178500Y354000D02*
D03*
X195500D02*
D03*
X178500Y340000D02*
D03*
X195500D02*
D03*
X437500Y266000D02*
D03*
X454500D02*
D03*
X437500Y279000D02*
D03*
X454500D02*
D03*
X259500Y416000D02*
D03*
X276500D02*
D03*
X277500Y278000D02*
D03*
X260500D02*
D03*
X362500Y280000D02*
D03*
X345500D02*
D03*
X344500Y433000D02*
D03*
X361500D02*
D03*
X426500Y205000D02*
D03*
X409500D02*
D03*
D54*
X16250Y499500D02*
D03*
X107250D02*
D03*
X16250Y454500D02*
D03*
X107250D02*
D03*
D55*
X180850Y22500D02*
D03*
X222650D02*
D03*
D56*
X279250Y443000D02*
D03*
X256750D02*
D03*
X640750Y207000D02*
D03*
X663250D02*
D03*
D57*
X378160Y395000D02*
D03*
X397840Y385295D02*
D03*
Y404705D02*
D03*
D58*
X312500Y225750D02*
D03*
X227500D02*
D03*
D59*
X429750Y226750D02*
D03*
X405750D02*
D03*
X417750D02*
D03*
D60*
X47500Y22000D02*
D03*
X633000Y468250D02*
D03*
D61*
X159600Y447300D02*
D03*
Y472700D02*
D03*
X185000Y447300D02*
D03*
Y472700D02*
D03*
X210400Y447300D02*
D03*
X654200Y280400D02*
D03*
X628800Y255000D02*
D03*
X654200D02*
D03*
X628800Y229600D02*
D03*
X654200D02*
D03*
X539240Y22760D02*
D03*
X564640D02*
D03*
X590040D02*
D03*
X615440D02*
D03*
X640840D02*
D03*
X581850Y511750D02*
D03*
X556450D02*
D03*
X531050D02*
D03*
X505650D02*
D03*
X480250Y511750D02*
D03*
X454850D02*
D03*
X607250Y511750D02*
D03*
X343840Y22760D02*
D03*
X369240D02*
D03*
X318440D02*
D03*
X394640D02*
D03*
X420040D02*
D03*
X445440Y22760D02*
D03*
X470840D02*
D03*
X237499Y511750D02*
D03*
X288299Y511749D02*
D03*
X389899D02*
D03*
X364499D02*
D03*
X339099D02*
D03*
X313699D02*
D03*
X212101Y511751D02*
D03*
X186701D02*
D03*
X262899Y511750D02*
D03*
D62*
X210400Y472700D02*
D03*
D63*
X628800Y280400D02*
D03*
X513840Y22760D02*
D03*
X632650Y511750D02*
D03*
X293040Y22760D02*
D03*
X415299Y511749D02*
D03*
D64*
X455300Y106650D02*
D03*
X404500D02*
D03*
X556900Y182850D02*
D03*
X531500D02*
D03*
X506100D02*
D03*
X429900D02*
D03*
X404500D02*
D03*
X379100D02*
D03*
X353700D02*
D03*
X328300D02*
D03*
X302900D02*
D03*
Y106650D02*
D03*
X328300D02*
D03*
X353700D02*
D03*
X379100D02*
D03*
X506100D02*
D03*
X531500D02*
D03*
X556900D02*
D03*
X582300D02*
D03*
X607700D02*
D03*
X633100D02*
D03*
X429900D02*
D03*
X480700Y182850D02*
D03*
X582300D02*
D03*
X607700D02*
D03*
X455300D02*
D03*
X480700Y106650D02*
D03*
D65*
X633100Y182850D02*
D03*
D66*
X139000Y101750D02*
D03*
X79000D02*
D03*
D67*
X110500Y55750D02*
D03*
D68*
X151550Y337250D02*
D03*
Y362250D02*
D03*
X131550Y362250D02*
D03*
Y337250D02*
D03*
D69*
X104450Y409950D02*
D03*
Y289550D02*
D03*
D70*
X139700Y508000D02*
D03*
Y25400D02*
D03*
X660400Y76200D02*
D03*
Y355600D02*
D03*
D71*
X267995Y352994D02*
D03*
X267996Y338988D02*
D03*
X282002Y338989D02*
D03*
X296007Y338989D02*
D03*
X282001Y352994D02*
D03*
X267994Y366999D02*
D03*
X282000Y367000D02*
D03*
X296007Y352995D02*
D03*
X296006Y367001D02*
D03*
M02*
