G04*
G04 #@! TF.GenerationSoftware,Altium Limited,Altium Designer,25.5.2 (35)*
G04*
G04 Layer_Physical_Order=1*
G04 Layer_Color=255*
%FSLAX44Y44*%
%MOMM*%
G71*
G04*
G04 #@! TF.SameCoordinates,36E1A225-4DC9-43DF-9F0C-FC386396E2DA*
G04*
G04*
G04 #@! TF.FilePolarity,Positive*
G04*
G01*
G75*
%ADD12C,0.1500*%
%ADD14R,0.9000X0.9000*%
%ADD15R,0.9000X0.9000*%
%ADD16R,1.3000X3.5000*%
%ADD17R,1.5000X0.5500*%
%ADD18R,0.2500X0.8000*%
%ADD19R,0.8000X0.2500*%
%ADD20R,3.7000X3.7000*%
%ADD21R,2.1500X3.2500*%
%ADD22R,2.1500X0.9500*%
%ADD23R,1.0000X0.5500*%
%ADD24R,1.5000X3.3000*%
%ADD25R,0.8500X0.8500*%
%ADD26R,0.8500X0.8500*%
%ADD27R,0.7000X0.8000*%
%ADD28R,0.8000X0.9000*%
%ADD29R,0.9000X0.8000*%
%ADD30R,0.7500X0.7500*%
%ADD31R,2.1000X1.4000*%
%ADD32R,2.3000X1.6800*%
%ADD33R,0.6500X0.8600*%
%ADD34R,1.5000X0.6000*%
%ADD35R,5.5000X1.5000*%
%ADD36R,0.4000X2.0000*%
%ADD37C,1.0000*%
%ADD68C,1.6000*%
%ADD72C,0.2500*%
%ADD73C,0.5000*%
%ADD74C,1.0000*%
%ADD75R,1.6000X1.6000*%
%ADD76R,1.6000X1.6000*%
%ADD77C,1.8000*%
%ADD78R,1.8000X1.8000*%
%ADD79R,2.0000X4.2000*%
%ADD80R,4.2000X2.0000*%
%ADD81C,1.5000*%
%ADD82C,3.0000*%
%ADD83C,0.7000*%
G36*
X658750Y406250D02*
X659000D01*
X684750Y380500D01*
Y51000D01*
X659250Y25500D01*
Y1250D01*
X1250D01*
Y532000D01*
X302183D01*
X302868Y530730D01*
X302617Y530348D01*
X302556Y530336D01*
X301481Y529618D01*
X301481Y529617D01*
X292648Y520785D01*
X292158Y521068D01*
X289615Y521749D01*
X286982D01*
X284439Y521068D01*
X282159Y519751D01*
X280297Y517889D01*
X278980Y515609D01*
X278299Y513065D01*
Y510433D01*
X278980Y507889D01*
X280297Y505609D01*
X282159Y503747D01*
X284439Y502430D01*
X286982Y501749D01*
X289615D01*
X292158Y502430D01*
X294439Y503747D01*
X296301Y505609D01*
X297617Y507889D01*
X298299Y510433D01*
Y513065D01*
X297617Y515609D01*
X297334Y516099D01*
X305922Y524686D01*
X428627D01*
X429686Y523627D01*
Y496757D01*
X428761Y495832D01*
X428000Y493995D01*
Y492005D01*
X428761Y490168D01*
X430168Y488761D01*
X432005Y488000D01*
X433995D01*
X435832Y488761D01*
X437239Y490168D01*
X438000Y492005D01*
Y493995D01*
X437239Y495832D01*
X436314Y496757D01*
Y523965D01*
X436061Y525233D01*
X435527Y526032D01*
X435336Y526994D01*
X434617Y528069D01*
X433069Y529618D01*
X431994Y530336D01*
X431933Y530348D01*
X431682Y530730D01*
X432367Y532000D01*
X658750D01*
Y406250D01*
D02*
G37*
%LPC*%
G36*
X264282Y522250D02*
X264149D01*
Y513000D01*
X273399D01*
Y513132D01*
X272684Y515803D01*
X271301Y518197D01*
X269347Y520152D01*
X266952Y521534D01*
X264282Y522250D01*
D02*
G37*
G36*
X261649D02*
X261517D01*
X258846Y521534D01*
X256452Y520152D01*
X254497Y518197D01*
X253115Y515803D01*
X252399Y513132D01*
Y513000D01*
X261649D01*
Y522250D01*
D02*
G37*
G36*
X213418Y521751D02*
X210785D01*
X208242Y521069D01*
X205961Y519753D01*
X204100Y517891D01*
X202783Y515611D01*
X202101Y513068D01*
Y510434D01*
X202783Y507891D01*
X204100Y505611D01*
X205961Y503749D01*
X208242Y502433D01*
X210785Y501751D01*
X213418D01*
X215961Y502433D01*
X218242Y503749D01*
X220103Y505611D01*
X221420Y507891D01*
X222101Y510434D01*
Y513068D01*
X221420Y515611D01*
X220103Y517891D01*
X218242Y519753D01*
X215961Y521069D01*
X213418Y521751D01*
D02*
G37*
G36*
X188018D02*
X185385D01*
X182842Y521069D01*
X180561Y519753D01*
X178699Y517891D01*
X177383Y515611D01*
X176701Y513068D01*
Y510434D01*
X177383Y507891D01*
X178699Y505611D01*
X180561Y503749D01*
X182842Y502433D01*
X185385Y501751D01*
X188018D01*
X190561Y502433D01*
X192841Y503749D01*
X194703Y505611D01*
X196020Y507891D01*
X196701Y510434D01*
Y513068D01*
X196020Y515611D01*
X194703Y517891D01*
X192841Y519753D01*
X190561Y521069D01*
X188018Y521751D01*
D02*
G37*
G36*
X481567Y521750D02*
X478934D01*
X476391Y521069D01*
X474110Y519752D01*
X472248Y517891D01*
X470932Y515610D01*
X470250Y513067D01*
Y510434D01*
X470932Y507891D01*
X472248Y505610D01*
X474110Y503748D01*
X476391Y502432D01*
X478934Y501750D01*
X481567D01*
X484110Y502432D01*
X486390Y503748D01*
X488252Y505610D01*
X489569Y507891D01*
X490250Y510434D01*
Y513067D01*
X489569Y515610D01*
X488252Y517891D01*
X486390Y519752D01*
X484110Y521069D01*
X481567Y521750D01*
D02*
G37*
G36*
X456167D02*
X453534D01*
X450991Y521069D01*
X448710Y519752D01*
X446848Y517891D01*
X445532Y515610D01*
X444850Y513067D01*
Y510434D01*
X445532Y507891D01*
X446848Y505610D01*
X448710Y503748D01*
X450991Y502432D01*
X453534Y501750D01*
X456167D01*
X458710Y502432D01*
X460990Y503748D01*
X462852Y505610D01*
X464169Y507891D01*
X464850Y510434D01*
Y513067D01*
X464169Y515610D01*
X462852Y517891D01*
X460990Y519752D01*
X458710Y521069D01*
X456167Y521750D01*
D02*
G37*
G36*
X238816Y521750D02*
X236183D01*
X233640Y521068D01*
X231359Y519752D01*
X229497Y517890D01*
X228181Y515610D01*
X227499Y513066D01*
Y510433D01*
X228181Y507890D01*
X229497Y505610D01*
X231359Y503748D01*
X233640Y502431D01*
X236183Y501750D01*
X238816D01*
X241359Y502431D01*
X243640Y503748D01*
X245501Y505610D01*
X246818Y507890D01*
X247499Y510433D01*
Y513066D01*
X246818Y515610D01*
X245501Y517890D01*
X243640Y519752D01*
X241359Y521068D01*
X238816Y521750D01*
D02*
G37*
G36*
X608566Y521750D02*
X605933D01*
X603390Y521068D01*
X601110Y519752D01*
X599248Y517890D01*
X597931Y515609D01*
X597250Y513066D01*
Y510433D01*
X597931Y507890D01*
X599037Y505974D01*
X593889Y500825D01*
X593171Y499750D01*
X592981Y498794D01*
X592439Y497983D01*
X592186Y496715D01*
Y216477D01*
X580682Y204973D01*
X579964Y203898D01*
X579773Y202937D01*
X579239Y202137D01*
X578986Y200869D01*
Y193350D01*
X578054Y193100D01*
X575546Y191652D01*
X573498Y189604D01*
X572050Y187096D01*
X571300Y184298D01*
Y181402D01*
X572050Y178604D01*
X573498Y176096D01*
X575546Y174048D01*
X578054Y172600D01*
X580852Y171850D01*
X583748D01*
X586546Y172600D01*
X589054Y174048D01*
X591102Y176096D01*
X592550Y178604D01*
X593300Y181402D01*
Y184298D01*
X592550Y187096D01*
X591102Y189604D01*
X589054Y191652D01*
X586546Y193100D01*
X585614Y193350D01*
Y200532D01*
X597118Y212036D01*
X597836Y213111D01*
X598027Y214072D01*
X598561Y214872D01*
X598814Y216140D01*
Y496377D01*
X604555Y502119D01*
X605933Y501750D01*
X608566D01*
X611109Y502431D01*
X613390Y503748D01*
X615252Y505610D01*
X616568Y507890D01*
X617250Y510433D01*
Y513066D01*
X616568Y515609D01*
X615252Y517890D01*
X613390Y519752D01*
X611109Y521068D01*
X608566Y521750D01*
D02*
G37*
G36*
X425299Y521749D02*
X405299D01*
Y501749D01*
X425299D01*
Y521749D01*
D02*
G37*
G36*
X391215D02*
X388582D01*
X386039Y521068D01*
X383759Y519751D01*
X381897Y517889D01*
X380580Y515609D01*
X379899Y513065D01*
Y510433D01*
X380580Y507889D01*
X381897Y505609D01*
X383759Y503747D01*
X386039Y502430D01*
X388582Y501749D01*
X391215D01*
X393758Y502430D01*
X396039Y503747D01*
X397901Y505609D01*
X399217Y507889D01*
X399899Y510433D01*
Y513065D01*
X399217Y515609D01*
X397901Y517889D01*
X396039Y519751D01*
X393758Y521068D01*
X391215Y521749D01*
D02*
G37*
G36*
X365815D02*
X363182D01*
X360639Y521068D01*
X358358Y519751D01*
X356497Y517889D01*
X355180Y515609D01*
X354499Y513065D01*
Y510433D01*
X355180Y507889D01*
X356497Y505609D01*
X358358Y503747D01*
X360639Y502430D01*
X363182Y501749D01*
X365815D01*
X368358Y502430D01*
X370639Y503747D01*
X372501Y505609D01*
X373817Y507889D01*
X374499Y510433D01*
Y513065D01*
X373817Y515609D01*
X372501Y517889D01*
X370639Y519751D01*
X368358Y521068D01*
X365815Y521749D01*
D02*
G37*
G36*
X340415D02*
X337782D01*
X335239Y521068D01*
X332958Y519751D01*
X331097Y517889D01*
X329780Y515609D01*
X329099Y513065D01*
Y510433D01*
X329780Y507889D01*
X331097Y505609D01*
X332958Y503747D01*
X335239Y502430D01*
X337782Y501749D01*
X340415D01*
X342958Y502430D01*
X345239Y503747D01*
X347101Y505609D01*
X348417Y507889D01*
X349099Y510433D01*
Y513065D01*
X348417Y515609D01*
X347101Y517889D01*
X345239Y519751D01*
X342958Y521068D01*
X340415Y521749D01*
D02*
G37*
G36*
X315015D02*
X312382D01*
X309839Y521068D01*
X307558Y519751D01*
X305697Y517889D01*
X304380Y515609D01*
X303699Y513065D01*
Y510433D01*
X304380Y507889D01*
X305697Y505609D01*
X307558Y503747D01*
X309839Y502430D01*
X312382Y501749D01*
X315015D01*
X317558Y502430D01*
X319839Y503747D01*
X321701Y505609D01*
X323017Y507889D01*
X323699Y510433D01*
Y513065D01*
X323017Y515609D01*
X321701Y517889D01*
X319839Y519751D01*
X317558Y521068D01*
X315015Y521749D01*
D02*
G37*
G36*
X273399Y510500D02*
X264149D01*
Y501250D01*
X264282D01*
X266952Y501965D01*
X269347Y503348D01*
X271301Y505303D01*
X272684Y507697D01*
X273399Y510368D01*
Y510500D01*
D02*
G37*
G36*
X261649D02*
X252399D01*
Y510368D01*
X253115Y507697D01*
X254497Y505303D01*
X256452Y503348D01*
X258846Y501965D01*
X261517Y501250D01*
X261649D01*
Y510500D01*
D02*
G37*
G36*
X141424Y525500D02*
X137976D01*
X134595Y524827D01*
X131411Y523508D01*
X128544Y521593D01*
X126107Y519156D01*
X124192Y516289D01*
X122873Y513105D01*
X122200Y509724D01*
Y506276D01*
X122873Y502895D01*
X124192Y499711D01*
X126107Y496844D01*
X128544Y494407D01*
X131411Y492492D01*
X134206Y491334D01*
X133954Y490064D01*
X120839D01*
X119750Y490500D01*
Y508500D01*
X94750D01*
Y502814D01*
X28750D01*
Y508500D01*
X3750D01*
Y490500D01*
X28750D01*
Y496186D01*
X94750D01*
Y490500D01*
X103936D01*
Y490420D01*
X104189Y489152D01*
X104907Y488077D01*
X106751Y486234D01*
X106265Y485060D01*
X84392D01*
X82565Y484820D01*
X81235Y484269D01*
X81158Y484261D01*
X78047Y483318D01*
X75181Y481786D01*
X75135Y481748D01*
X73801Y481195D01*
X72338Y480073D01*
X23427Y431162D01*
X22305Y429699D01*
X21752Y428365D01*
X21714Y428319D01*
X20182Y425453D01*
X19239Y422342D01*
X19231Y422265D01*
X18680Y420935D01*
X18440Y419108D01*
Y338142D01*
X18680Y336315D01*
X19231Y334985D01*
X19239Y334908D01*
X20182Y331797D01*
X21714Y328931D01*
X21752Y328885D01*
X22305Y327550D01*
X23427Y326088D01*
X80745Y268770D01*
X80700Y268368D01*
X80284Y267500D01*
X79250D01*
Y230500D01*
X79250Y230500D01*
X79155Y229270D01*
X77744Y228989D01*
X76256Y227994D01*
X60756Y212494D01*
X59761Y211006D01*
X59412Y209250D01*
Y195088D01*
X51250D01*
Y208750D01*
X25750D01*
Y172250D01*
X51250D01*
Y185912D01*
X83750D01*
Y183750D01*
X102761D01*
X109381Y177131D01*
X110869Y176136D01*
X112625Y175787D01*
X121136D01*
X121287Y175724D01*
X129756Y167256D01*
X131244Y166261D01*
X133000Y165912D01*
X137000D01*
Y164000D01*
X149000D01*
Y177000D01*
X137000D01*
Y175088D01*
X134901D01*
X127776Y182213D01*
X127364Y183207D01*
X125957Y184614D01*
X124120Y185375D01*
X122130D01*
X121136Y184963D01*
X114525D01*
X109250Y190239D01*
Y197250D01*
X83750D01*
Y195088D01*
X68588D01*
Y207349D01*
X81400Y220162D01*
X83750D01*
Y206750D01*
X109250D01*
Y208912D01*
X117250D01*
Y207000D01*
X130250D01*
Y208912D01*
X155599D01*
X166287Y198225D01*
Y187211D01*
X166636Y185455D01*
X167631Y183966D01*
X179662Y171935D01*
X179662Y140500D01*
X175750D01*
Y101500D01*
X179662D01*
Y99000D01*
X180011Y97244D01*
X181006Y95756D01*
X187588Y89173D01*
X187102Y88000D01*
X185500D01*
Y69250D01*
X193250D01*
Y81852D01*
X194423Y82338D01*
X214897Y61865D01*
X214897Y61865D01*
X217950Y58811D01*
X218098Y58712D01*
X218062Y58529D01*
Y32900D01*
X209150D01*
Y12100D01*
X236150D01*
Y17627D01*
X237420Y18153D01*
X245907Y9667D01*
X246982Y8948D01*
X248250Y8696D01*
X460090D01*
X461358Y8948D01*
X462433Y9667D01*
X466490Y13724D01*
X466980Y13441D01*
X469523Y12760D01*
X472156D01*
X474699Y13441D01*
X476980Y14758D01*
X478842Y16619D01*
X480158Y18900D01*
X480840Y21443D01*
Y24076D01*
X480158Y26619D01*
X479875Y27109D01*
X495111Y42345D01*
X495829Y43420D01*
X496020Y44376D01*
X496561Y45188D01*
X496814Y46456D01*
Y98584D01*
X498084Y99110D01*
X499346Y97848D01*
X501854Y96400D01*
X504652Y95650D01*
X504686D01*
Y32760D01*
X503840D01*
Y12760D01*
X523840D01*
Y32760D01*
X511314D01*
Y96958D01*
X512854Y97848D01*
X514902Y99896D01*
X516350Y102404D01*
X517100Y105202D01*
Y108098D01*
X516350Y110896D01*
X514902Y113404D01*
X512854Y115452D01*
X510346Y116900D01*
X507548Y117650D01*
X504652D01*
X501854Y116900D01*
X499346Y115452D01*
X498084Y114190D01*
X496814Y114716D01*
Y152993D01*
X497739Y153918D01*
X498500Y155755D01*
Y157745D01*
X498118Y158666D01*
X498967Y159936D01*
X605965D01*
X607233Y160189D01*
X608044Y160730D01*
X609000Y160921D01*
X610075Y161639D01*
X620830Y172394D01*
X621759Y172148D01*
X622100Y171910D01*
Y171850D01*
X636686D01*
Y169000D01*
X636939Y167732D01*
X637657Y166657D01*
X642157Y162157D01*
X643232Y161439D01*
X644500Y161186D01*
X650000D01*
Y158000D01*
X662000D01*
Y161186D01*
X663500D01*
Y159000D01*
X676500D01*
Y172000D01*
X663500D01*
Y167814D01*
X662000D01*
Y171000D01*
X650000D01*
Y167814D01*
X645872D01*
X643314Y170373D01*
Y171850D01*
X644100D01*
Y193850D01*
X622764D01*
Y199176D01*
X622511Y200445D01*
X621793Y201520D01*
X616814Y206499D01*
Y236127D01*
X620607Y239921D01*
X624137D01*
X624477Y238651D01*
X622660Y237602D01*
X620798Y235740D01*
X619482Y233460D01*
X618800Y230917D01*
Y228284D01*
X619482Y225740D01*
X620798Y223460D01*
X622660Y221598D01*
X624940Y220282D01*
X627483Y219600D01*
X630117D01*
X631875Y220071D01*
X637376Y214570D01*
X637291Y213300D01*
X635500D01*
Y200700D01*
X637436D01*
Y200464D01*
X637689Y199196D01*
X638407Y198121D01*
X639871Y196657D01*
X640946Y195939D01*
X642215Y195686D01*
X647377D01*
X652686Y190377D01*
Y188000D01*
X650000D01*
Y175000D01*
X661730D01*
X662000Y175000D01*
X663000Y174348D01*
Y173500D01*
X668750D01*
Y180500D01*
Y187500D01*
X663270D01*
X663063Y187500D01*
X662000Y188000D01*
X661937Y188000D01*
X659314D01*
Y190714D01*
X659061Y191982D01*
X658519Y192794D01*
X658329Y193750D01*
X657611Y194825D01*
X651093Y201343D01*
X650018Y202061D01*
X648750Y202314D01*
X646000D01*
Y213300D01*
X647270Y213301D01*
X656417D01*
X656758Y213369D01*
X657933Y212501D01*
X658000Y212352D01*
Y200700D01*
X668500D01*
Y206712D01*
X669744D01*
X670255Y206500D01*
X672245D01*
X674082Y207261D01*
X675489Y208668D01*
X676250Y210505D01*
Y212495D01*
X675489Y214332D01*
X674082Y215739D01*
X672245Y216500D01*
X670255D01*
X668778Y215888D01*
X666500D01*
X664744Y215539D01*
X663256Y214544D01*
X662011Y213300D01*
X659522D01*
X659451Y213391D01*
X659059Y214570D01*
X663175Y218686D01*
X674493D01*
X675418Y217761D01*
X677255Y217000D01*
X679245D01*
X681082Y217761D01*
X682489Y219168D01*
X683250Y221005D01*
Y222995D01*
X682489Y224832D01*
X681564Y225757D01*
Y234250D01*
X681311Y235518D01*
X680593Y236593D01*
X679456Y237730D01*
X679658Y239000D01*
X682000D01*
Y252000D01*
X670000D01*
Y239000D01*
X672686D01*
Y236500D01*
X672939Y235232D01*
X673657Y234157D01*
X674936Y232877D01*
Y225757D01*
X674493Y225314D01*
X665237D01*
X664262Y226584D01*
X664700Y228218D01*
Y228350D01*
X643700D01*
Y228218D01*
X644416Y225547D01*
X645798Y223153D01*
X647753Y221198D01*
X647827Y221155D01*
X647499Y219928D01*
X641390D01*
X637189Y224130D01*
X638119Y225740D01*
X638800Y228284D01*
Y230917D01*
X638119Y233460D01*
X636802Y235740D01*
X634940Y237602D01*
X633123Y238651D01*
X633463Y239921D01*
X642435D01*
X643703Y240173D01*
X644778Y240892D01*
X649850Y245964D01*
X650340Y245681D01*
X652884Y245000D01*
X655517D01*
X658060Y245681D01*
X660340Y246998D01*
X662202Y248860D01*
X663519Y251140D01*
X664200Y253683D01*
Y256317D01*
X663519Y258860D01*
X662202Y261140D01*
X660340Y263002D01*
X658060Y264319D01*
X655517Y265000D01*
X652884D01*
X650340Y264319D01*
X648060Y263002D01*
X646198Y261140D01*
X644882Y258860D01*
X644200Y256317D01*
Y253683D01*
X644882Y251140D01*
X645164Y250651D01*
X641062Y246549D01*
X636287D01*
X635761Y247819D01*
X636802Y248860D01*
X638119Y251140D01*
X638800Y253683D01*
Y256317D01*
X638119Y258860D01*
X636802Y261140D01*
X634940Y263002D01*
X632660Y264319D01*
X630117Y265000D01*
X627483D01*
X624940Y264319D01*
X622660Y263002D01*
X620798Y261140D01*
X619482Y258860D01*
X618800Y256317D01*
Y253683D01*
X619482Y251140D01*
X620798Y248860D01*
X621839Y247819D01*
X621313Y246549D01*
X620270D01*
X619002Y246296D01*
X618202Y245762D01*
X617241Y245571D01*
X616166Y244852D01*
X612284Y240970D01*
X611014Y241496D01*
Y485428D01*
X627336Y501750D01*
X642650D01*
Y521750D01*
X622650D01*
Y506436D01*
X606089Y489875D01*
X605371Y488800D01*
X605181Y487844D01*
X604639Y487033D01*
X604386Y485765D01*
Y193350D01*
X603454Y193100D01*
X600946Y191652D01*
X598898Y189604D01*
X597450Y187096D01*
X596700Y184298D01*
Y181402D01*
X597450Y178604D01*
X598898Y176096D01*
X600946Y174048D01*
X603454Y172600D01*
X606252Y171850D01*
X609118D01*
X609318Y171640D01*
X609825Y170761D01*
X605627Y166564D01*
X490546D01*
X490020Y167834D01*
X494611Y172425D01*
X495329Y173500D01*
X495519Y174456D01*
X496061Y175267D01*
X496125Y175587D01*
X496675Y175826D01*
X497484Y175910D01*
X499346Y174048D01*
X501854Y172600D01*
X504652Y171850D01*
X507548D01*
X510346Y172600D01*
X512854Y174048D01*
X514902Y176096D01*
X516350Y178604D01*
X517100Y181402D01*
Y184298D01*
X516350Y187096D01*
X514902Y189604D01*
X512854Y191652D01*
X510496Y193014D01*
X510277Y193589D01*
X510153Y194467D01*
X562617Y246931D01*
X563336Y248006D01*
X563527Y248968D01*
X564061Y249767D01*
X564314Y251035D01*
Y480764D01*
X564061Y482032D01*
X563519Y482843D01*
X563329Y483799D01*
X562611Y484874D01*
X540085Y507400D01*
X540368Y507890D01*
X541050Y510433D01*
Y513066D01*
X540368Y515609D01*
X539052Y517890D01*
X537190Y519752D01*
X534909Y521068D01*
X532366Y521750D01*
X529733D01*
X527190Y521068D01*
X524910Y519752D01*
X523048Y517890D01*
X521731Y515609D01*
X521050Y513066D01*
Y510433D01*
X521731Y507890D01*
X523048Y505610D01*
X524910Y503748D01*
X527190Y502431D01*
X529733Y501750D01*
X532366D01*
X534909Y502431D01*
X535399Y502714D01*
X557686Y480426D01*
Y251373D01*
X504482Y198169D01*
X503764Y197094D01*
X503573Y196132D01*
X503039Y195333D01*
X502786Y194065D01*
Y193350D01*
X501854Y193100D01*
X499346Y191652D01*
X497584Y189890D01*
X496314Y190294D01*
Y196628D01*
X552117Y252431D01*
X552836Y253506D01*
X553027Y254468D01*
X553561Y255267D01*
X553814Y256535D01*
Y465864D01*
X553561Y467132D01*
X553019Y467943D01*
X552829Y468899D01*
X552111Y469974D01*
X514685Y507400D01*
X514968Y507890D01*
X515650Y510433D01*
Y513066D01*
X514968Y515609D01*
X513652Y517890D01*
X511790Y519752D01*
X509509Y521068D01*
X506966Y521750D01*
X504333D01*
X501790Y521068D01*
X499510Y519752D01*
X497648Y517890D01*
X496331Y515609D01*
X495650Y513066D01*
Y510433D01*
X496331Y507890D01*
X497648Y505610D01*
X499510Y503748D01*
X501790Y502431D01*
X504333Y501750D01*
X506966D01*
X509509Y502431D01*
X509999Y502714D01*
X547186Y465527D01*
Y256873D01*
X491382Y201069D01*
X490664Y199994D01*
X490473Y199032D01*
X489939Y198233D01*
X489686Y196964D01*
Y191216D01*
X488416Y190690D01*
X487454Y191652D01*
X485588Y192729D01*
Y198500D01*
X487500D01*
Y211111D01*
X488881Y211386D01*
X490369Y212381D01*
X537744Y259756D01*
X538739Y261244D01*
X539088Y263000D01*
Y373535D01*
X538739Y375291D01*
X537744Y376780D01*
X534815Y379709D01*
X533327Y380703D01*
X531571Y381053D01*
X504338D01*
Y396500D01*
X504250Y396943D01*
Y398245D01*
X503489Y400082D01*
X502082Y401489D01*
X500661Y402077D01*
X494994Y407744D01*
X493506Y408739D01*
X491750Y409088D01*
X442679D01*
X440923Y408739D01*
X439435Y407744D01*
X436506Y404815D01*
X435511Y403327D01*
X435162Y401571D01*
Y395250D01*
X432750D01*
Y394939D01*
X431770Y394744D01*
X431189Y394632D01*
X430500Y395000D01*
Y395000D01*
X417500D01*
Y395000D01*
X417319Y394925D01*
X416088Y395790D01*
Y401776D01*
X415739Y403532D01*
X414744Y405020D01*
X411815Y407949D01*
X410327Y408944D01*
X408571Y409293D01*
X407340D01*
Y409705D01*
X388340D01*
Y409293D01*
X369945D01*
X366088Y413150D01*
Y427000D01*
X368000D01*
Y439000D01*
X355000D01*
Y427000D01*
X356912D01*
Y411250D01*
X357261Y409494D01*
X358256Y408006D01*
X364769Y401492D01*
X364769Y401334D01*
X364473Y400152D01*
X364144Y400095D01*
X338509Y425730D01*
X339035Y427000D01*
X351000D01*
Y439000D01*
X349744D01*
X349020Y440270D01*
X349304Y440750D01*
X351250D01*
Y452268D01*
X352520Y452794D01*
X356750Y448564D01*
Y440750D01*
X369250D01*
Y453250D01*
X361436D01*
X336593Y478093D01*
X335518Y478811D01*
X334250Y479064D01*
X317507D01*
X316582Y479989D01*
X314745Y480750D01*
X312755D01*
X310918Y479989D01*
X309511Y478582D01*
X308750Y476745D01*
Y474755D01*
X309511Y472918D01*
X310918Y471511D01*
X312755Y470750D01*
X314745D01*
X316582Y471511D01*
X317507Y472436D01*
X332878D01*
X350794Y454520D01*
X350268Y453250D01*
X338750D01*
Y440750D01*
X341186D01*
Y439000D01*
X338000D01*
Y428035D01*
X336730Y427509D01*
X287744Y476494D01*
X286256Y477489D01*
X284500Y477838D01*
X271739D01*
X270745Y478250D01*
X268755D01*
X266918Y477489D01*
X265511Y476082D01*
X264750Y474245D01*
Y472255D01*
X265339Y470834D01*
X264706Y469564D01*
X246879D01*
X245611Y469311D01*
X244799Y468769D01*
X243843Y468579D01*
X242768Y467861D01*
X240171Y465264D01*
X220400D01*
Y482700D01*
X203970D01*
X203650Y482764D01*
X195471D01*
X192442Y485793D01*
X191367Y486511D01*
X190099Y486763D01*
X180547D01*
X179279Y486511D01*
X178204Y485793D01*
X170139Y477728D01*
X169909Y477384D01*
X168414Y477433D01*
X167602Y478840D01*
X165740Y480702D01*
X163460Y482019D01*
X162908Y482166D01*
X163075Y483436D01*
X167750D01*
X169018Y483689D01*
X170093Y484407D01*
X174873Y489186D01*
X355377Y489186D01*
X395186Y449378D01*
Y422507D01*
X394261Y421582D01*
X393500Y419745D01*
Y417755D01*
X394261Y415918D01*
X395668Y414511D01*
X397505Y413750D01*
X399495D01*
X401332Y414511D01*
X402739Y415918D01*
X403500Y417755D01*
Y419745D01*
X402739Y421582D01*
X401814Y422507D01*
Y449715D01*
X401561Y450983D01*
X401020Y451794D01*
X400975Y452018D01*
X400844Y452715D01*
X400833Y452733D01*
X400829Y452750D01*
X400496Y453249D01*
X400138Y453798D01*
X400136Y453800D01*
X400121Y453810D01*
X400111Y453825D01*
X359825Y494111D01*
X358750Y494829D01*
X357793Y495019D01*
X356982Y495561D01*
X355714Y495814D01*
X173500Y495814D01*
X172232Y495561D01*
X171157Y494843D01*
X166378Y490064D01*
X145446D01*
X145194Y491334D01*
X147989Y492492D01*
X150856Y494407D01*
X153293Y496844D01*
X155208Y499711D01*
X156527Y502895D01*
X157200Y506276D01*
Y509724D01*
X156527Y513105D01*
X155208Y516289D01*
X153293Y519156D01*
X150856Y521593D01*
X147989Y523508D01*
X144805Y524827D01*
X141424Y525500D01*
D02*
G37*
G36*
X29250Y464000D02*
X17500D01*
Y455750D01*
X29250D01*
Y464000D01*
D02*
G37*
G36*
X15000D02*
X3250D01*
Y455750D01*
X15000D01*
Y464000D01*
D02*
G37*
G36*
X634477Y483250D02*
X631523D01*
X628625Y482673D01*
X625895Y481543D01*
X623438Y479901D01*
X621349Y477812D01*
X619707Y475355D01*
X618576Y472625D01*
X618000Y469727D01*
Y466773D01*
X618576Y463875D01*
X619707Y461145D01*
X621349Y458688D01*
X623438Y456599D01*
X625895Y454957D01*
X628625Y453826D01*
X631523Y453250D01*
X634477D01*
X637375Y453826D01*
X640105Y454957D01*
X642562Y456599D01*
X644651Y458688D01*
X646293Y461145D01*
X647423Y463875D01*
X648000Y466773D01*
Y469727D01*
X647423Y472625D01*
X646293Y475355D01*
X644651Y477812D01*
X642562Y479901D01*
X640105Y481543D01*
X637375Y482673D01*
X634477Y483250D01*
D02*
G37*
G36*
X29250Y453250D02*
X17500D01*
Y445000D01*
X29250D01*
Y453250D01*
D02*
G37*
G36*
X15000D02*
X3250D01*
Y445000D01*
X15000D01*
Y453250D01*
D02*
G37*
G36*
X662124Y373100D02*
X658676D01*
X655295Y372427D01*
X652111Y371108D01*
X649244Y369193D01*
X646807Y366756D01*
X644892Y363889D01*
X643572Y360705D01*
X642900Y357324D01*
Y353876D01*
X643572Y350495D01*
X644892Y347311D01*
X646807Y344444D01*
X649244Y342007D01*
X652111Y340092D01*
X655295Y338773D01*
X658676Y338100D01*
X662124D01*
X665505Y338773D01*
X668689Y340092D01*
X671556Y342007D01*
X673993Y344444D01*
X675908Y347311D01*
X677227Y350495D01*
X677900Y353876D01*
Y357324D01*
X677227Y360705D01*
X675908Y363889D01*
X673993Y366756D01*
X671556Y369193D01*
X668689Y371108D01*
X665505Y372427D01*
X662124Y373100D01*
D02*
G37*
G36*
X638800Y290400D02*
X618800D01*
Y270400D01*
X638800D01*
Y290400D01*
D02*
G37*
G36*
X655517D02*
X652884D01*
X650340Y289718D01*
X648060Y288402D01*
X646198Y286540D01*
X644882Y284260D01*
X644200Y281716D01*
Y279083D01*
X644882Y276540D01*
X646198Y274260D01*
X648060Y272398D01*
X650340Y271082D01*
X652884Y270400D01*
X655517D01*
X658060Y271082D01*
X660340Y272398D01*
X662202Y274260D01*
X663098Y275812D01*
X668199D01*
X671412Y272600D01*
Y269000D01*
X670000D01*
Y256000D01*
X682000D01*
Y269000D01*
X680588D01*
Y274500D01*
X680239Y276256D01*
X679244Y277744D01*
X673344Y283644D01*
X671856Y284639D01*
X670100Y284988D01*
X663098D01*
X662202Y286540D01*
X660340Y288402D01*
X658060Y289718D01*
X655517Y290400D01*
D02*
G37*
G36*
X655582Y240100D02*
X655450D01*
Y230850D01*
X664700D01*
Y230982D01*
X663984Y233653D01*
X662602Y236047D01*
X660647Y238002D01*
X658253Y239384D01*
X655582Y240100D01*
D02*
G37*
G36*
X652950D02*
X652818D01*
X650147Y239384D01*
X647753Y238002D01*
X645798Y236047D01*
X644416Y233653D01*
X643700Y230982D01*
Y230850D01*
X652950D01*
Y240100D01*
D02*
G37*
G36*
X47745Y279000D02*
X45756D01*
X43918Y278239D01*
X42511Y276832D01*
X41750Y274995D01*
Y273005D01*
X42511Y271168D01*
X43436Y270243D01*
Y267500D01*
X37250D01*
Y230500D01*
X56250D01*
Y267500D01*
X50064D01*
Y270243D01*
X50989Y271168D01*
X51750Y273005D01*
Y274995D01*
X50989Y276832D01*
X49582Y278239D01*
X47745Y279000D01*
D02*
G37*
G36*
X164250Y194250D02*
X151750D01*
Y190814D01*
X149000D01*
Y194000D01*
X137000D01*
Y181000D01*
X149000D01*
Y184186D01*
X151750D01*
Y181750D01*
X164250D01*
Y194250D01*
D02*
G37*
G36*
X671250Y187500D02*
Y181750D01*
X677000D01*
Y187500D01*
X671250D01*
D02*
G37*
G36*
X677000Y179250D02*
X671250D01*
Y173500D01*
X677000D01*
Y179250D01*
D02*
G37*
G36*
X583166Y521750D02*
X580533D01*
X577990Y521068D01*
X575709Y519752D01*
X573848Y517890D01*
X572531Y515609D01*
X571850Y513066D01*
Y510433D01*
X572531Y507890D01*
X573848Y505610D01*
X575709Y503748D01*
X577990Y502431D01*
X580533Y501750D01*
X580686D01*
Y229873D01*
X555283Y204469D01*
X554564Y203394D01*
X554373Y202432D01*
X553839Y201633D01*
X553586Y200364D01*
Y193350D01*
X552654Y193100D01*
X550146Y191652D01*
X548098Y189604D01*
X546650Y187096D01*
X545900Y184298D01*
Y181402D01*
X546650Y178604D01*
X548098Y176096D01*
X550146Y174048D01*
X552654Y172600D01*
X555452Y171850D01*
X558348D01*
X561146Y172600D01*
X563654Y174048D01*
X565702Y176096D01*
X567150Y178604D01*
X567900Y181402D01*
Y184298D01*
X567150Y187096D01*
X565702Y189604D01*
X563654Y191652D01*
X561146Y193100D01*
X560214Y193350D01*
Y200028D01*
X585617Y225431D01*
X586336Y226506D01*
X586527Y227468D01*
X587061Y228267D01*
X587314Y229536D01*
Y503357D01*
X587990Y503748D01*
X589852Y505610D01*
X591168Y507890D01*
X591850Y510433D01*
Y513066D01*
X591168Y515609D01*
X589852Y517890D01*
X587990Y519752D01*
X585709Y521068D01*
X583166Y521750D01*
D02*
G37*
G36*
X557766D02*
X555133D01*
X552590Y521068D01*
X550309Y519752D01*
X548448Y517890D01*
X547131Y515609D01*
X546450Y513066D01*
Y510433D01*
X547131Y507890D01*
X548448Y505610D01*
X550309Y503748D01*
X552590Y502431D01*
X555133Y501750D01*
X557766D01*
X560309Y502431D01*
X560799Y502714D01*
X569436Y494077D01*
Y241123D01*
X529883Y201569D01*
X529164Y200494D01*
X528973Y199532D01*
X528439Y198733D01*
X528186Y197465D01*
Y193350D01*
X527254Y193100D01*
X524746Y191652D01*
X522698Y189604D01*
X521250Y187096D01*
X520500Y184298D01*
Y181402D01*
X521250Y178604D01*
X522698Y176096D01*
X524746Y174048D01*
X527254Y172600D01*
X530052Y171850D01*
X532948D01*
X535746Y172600D01*
X538254Y174048D01*
X540302Y176096D01*
X541750Y178604D01*
X542500Y181402D01*
Y184298D01*
X541750Y187096D01*
X540302Y189604D01*
X538254Y191652D01*
X535746Y193100D01*
X534814Y193350D01*
Y197127D01*
X574367Y236681D01*
X575086Y237756D01*
X575277Y238718D01*
X575811Y239517D01*
X576064Y240786D01*
Y494414D01*
X575811Y495682D01*
X575270Y496493D01*
X575079Y497449D01*
X574361Y498525D01*
X565485Y507400D01*
X565768Y507890D01*
X566450Y510433D01*
Y513066D01*
X565768Y515609D01*
X564452Y517890D01*
X562590Y519752D01*
X560309Y521068D01*
X557766Y521750D01*
D02*
G37*
G36*
X164750Y176750D02*
X159250D01*
Y171250D01*
X164750D01*
Y176750D01*
D02*
G37*
G36*
X156750D02*
X151250D01*
Y171250D01*
X156750D01*
Y176750D01*
D02*
G37*
G36*
X109750Y174750D02*
X97750D01*
Y168750D01*
X109750D01*
Y174750D01*
D02*
G37*
G36*
X95250D02*
X83250D01*
Y168750D01*
X95250D01*
Y174750D01*
D02*
G37*
G36*
X164750Y168750D02*
X159250D01*
Y163250D01*
X164750D01*
Y168750D01*
D02*
G37*
G36*
X156750D02*
X151250D01*
Y163250D01*
X156750D01*
Y168750D01*
D02*
G37*
G36*
X109750Y166250D02*
X97750D01*
Y160250D01*
X109750D01*
Y166250D01*
D02*
G37*
G36*
X95250D02*
X83250D01*
Y160250D01*
X95250D01*
Y166250D01*
D02*
G37*
G36*
X91500Y125250D02*
X80250D01*
Y103000D01*
X91500D01*
Y125250D01*
D02*
G37*
G36*
X77750D02*
X66500D01*
Y103000D01*
X77750D01*
Y125250D01*
D02*
G37*
G36*
X91500Y100500D02*
X80250D01*
Y78250D01*
X91500D01*
Y100500D01*
D02*
G37*
G36*
X77750D02*
X66500D01*
Y78250D01*
X77750D01*
Y100500D01*
D02*
G37*
G36*
X183000Y88000D02*
X175250D01*
Y69250D01*
X183000D01*
Y88000D01*
D02*
G37*
G36*
X662124Y93700D02*
X658676D01*
X655295Y93027D01*
X652111Y91708D01*
X649244Y89793D01*
X646807Y87356D01*
X644892Y84489D01*
X643572Y81305D01*
X642900Y77924D01*
Y74476D01*
X643572Y71095D01*
X644892Y67911D01*
X646807Y65044D01*
X649244Y62607D01*
X652111Y60692D01*
X655295Y59373D01*
X658676Y58700D01*
X662124D01*
X665505Y59373D01*
X668689Y60692D01*
X671556Y62607D01*
X673993Y65044D01*
X675908Y67911D01*
X677227Y71095D01*
X677900Y74476D01*
Y77924D01*
X677227Y81305D01*
X675908Y84489D01*
X673993Y87356D01*
X671556Y89793D01*
X668689Y91708D01*
X665505Y93027D01*
X662124Y93700D01*
D02*
G37*
G36*
X134000Y68250D02*
X111750D01*
Y57000D01*
X134000D01*
Y68250D01*
D02*
G37*
G36*
X109250D02*
X87000D01*
Y57000D01*
X109250D01*
Y68250D01*
D02*
G37*
G36*
X193250Y66750D02*
X185500D01*
Y48000D01*
X193250D01*
Y66750D01*
D02*
G37*
G36*
X183000D02*
X175250D01*
Y48000D01*
X183000D01*
Y66750D01*
D02*
G37*
G36*
X109250Y54500D02*
X87000D01*
Y43250D01*
X109250D01*
Y54500D01*
D02*
G37*
G36*
X634548Y117650D02*
X631652D01*
X628854Y116900D01*
X626346Y115452D01*
X624298Y113404D01*
X622850Y110896D01*
X622100Y108098D01*
Y105202D01*
X622850Y102404D01*
X624298Y99896D01*
X626346Y97848D01*
X628854Y96400D01*
X629786Y96150D01*
Y31535D01*
X630039Y30267D01*
X630577Y29462D01*
X630768Y28503D01*
X631486Y27428D01*
X631804Y27109D01*
X631521Y26620D01*
X630840Y24076D01*
Y21444D01*
X631521Y18900D01*
X632838Y16620D01*
X634700Y14758D01*
X636980Y13441D01*
X639524Y12760D01*
X642157D01*
X644700Y13441D01*
X646980Y14758D01*
X648842Y16620D01*
X650158Y18900D01*
X650840Y21444D01*
Y24076D01*
X650158Y26620D01*
X648842Y28900D01*
X646980Y30762D01*
X644700Y32078D01*
X642157Y32760D01*
X639524D01*
X637684Y32267D01*
X636464Y33089D01*
X636414Y33187D01*
Y96150D01*
X637346Y96400D01*
X639854Y97848D01*
X641902Y99896D01*
X643350Y102404D01*
X644100Y105202D01*
Y108098D01*
X643350Y110896D01*
X641902Y113404D01*
X639854Y115452D01*
X637346Y116900D01*
X634548Y117650D01*
D02*
G37*
G36*
X609148D02*
X606252D01*
X603454Y116900D01*
X600946Y115452D01*
X598898Y113404D01*
X597450Y110896D01*
X596700Y108098D01*
Y105202D01*
X597450Y102404D01*
X598898Y99896D01*
X600946Y97848D01*
X603454Y96400D01*
X606252Y95650D01*
X609148D01*
X610974Y96139D01*
X612126Y94986D01*
Y32225D01*
X611580Y32078D01*
X609300Y30762D01*
X607438Y28900D01*
X606121Y26620D01*
X605440Y24076D01*
Y21444D01*
X606121Y18900D01*
X607438Y16620D01*
X609300Y14758D01*
X611580Y13441D01*
X614123Y12760D01*
X616757D01*
X619300Y13441D01*
X621580Y14758D01*
X623442Y16620D01*
X624758Y18900D01*
X625440Y21444D01*
Y24076D01*
X624758Y26620D01*
X623442Y28900D01*
X621580Y30762D01*
X619300Y32078D01*
X618754Y32225D01*
Y96359D01*
X618501Y97627D01*
X617783Y98702D01*
X616534Y99951D01*
X617950Y102404D01*
X618700Y105202D01*
Y108098D01*
X617950Y110896D01*
X616502Y113404D01*
X614454Y115452D01*
X611946Y116900D01*
X609148Y117650D01*
D02*
G37*
G36*
X583748D02*
X580852D01*
X578054Y116900D01*
X575546Y115452D01*
X573498Y113404D01*
X572050Y110896D01*
X571300Y108098D01*
Y105202D01*
X572050Y102404D01*
X573498Y99896D01*
X575546Y97848D01*
X578054Y96400D01*
X580852Y95650D01*
X583748D01*
X585574Y96139D01*
X586726Y94986D01*
Y32225D01*
X586180Y32078D01*
X583900Y30762D01*
X582038Y28900D01*
X580722Y26620D01*
X580040Y24076D01*
Y21444D01*
X580722Y18900D01*
X582038Y16620D01*
X583900Y14758D01*
X586180Y13441D01*
X588723Y12760D01*
X591357D01*
X593900Y13441D01*
X596180Y14758D01*
X598042Y16620D01*
X599358Y18900D01*
X600040Y21444D01*
Y24076D01*
X599358Y26620D01*
X598042Y28900D01*
X596180Y30762D01*
X593900Y32078D01*
X593354Y32225D01*
Y96359D01*
X593101Y97627D01*
X592383Y98702D01*
X591134Y99951D01*
X592550Y102404D01*
X593300Y105202D01*
Y108098D01*
X592550Y110896D01*
X591102Y113404D01*
X589054Y115452D01*
X586546Y116900D01*
X583748Y117650D01*
D02*
G37*
G36*
X558348D02*
X555452D01*
X552654Y116900D01*
X550146Y115452D01*
X548098Y113404D01*
X546650Y110896D01*
X545900Y108098D01*
Y105202D01*
X546650Y102404D01*
X548098Y99896D01*
X550146Y97848D01*
X552654Y96400D01*
X555452Y95650D01*
X558348D01*
X560173Y96139D01*
X561326Y94986D01*
Y32225D01*
X560780Y32078D01*
X558500Y30762D01*
X556638Y28900D01*
X555322Y26620D01*
X554640Y24076D01*
Y21444D01*
X555322Y18900D01*
X556638Y16620D01*
X558500Y14758D01*
X560780Y13441D01*
X563324Y12760D01*
X565956D01*
X568500Y13441D01*
X570780Y14758D01*
X572642Y16620D01*
X573959Y18900D01*
X574640Y21444D01*
Y24076D01*
X573959Y26620D01*
X572642Y28900D01*
X570780Y30762D01*
X568500Y32078D01*
X567954Y32225D01*
Y96359D01*
X567701Y97627D01*
X566983Y98702D01*
X565734Y99951D01*
X567150Y102404D01*
X567900Y105202D01*
Y108098D01*
X567150Y110896D01*
X565702Y113404D01*
X563654Y115452D01*
X561146Y116900D01*
X558348Y117650D01*
D02*
G37*
G36*
X532948D02*
X530052D01*
X527254Y116900D01*
X524746Y115452D01*
X522698Y113404D01*
X521250Y110896D01*
X520500Y108098D01*
Y105202D01*
X521250Y102404D01*
X522698Y99896D01*
X524746Y97848D01*
X527254Y96400D01*
X530052Y95650D01*
X532948D01*
X534773Y96139D01*
X535926Y94986D01*
Y32225D01*
X535380Y32078D01*
X533100Y30762D01*
X531238Y28900D01*
X529921Y26620D01*
X529240Y24076D01*
Y21444D01*
X529921Y18900D01*
X531238Y16620D01*
X533100Y14758D01*
X535380Y13441D01*
X537924Y12760D01*
X540556D01*
X543100Y13441D01*
X545380Y14758D01*
X547242Y16620D01*
X548559Y18900D01*
X549240Y21444D01*
Y24076D01*
X548559Y26620D01*
X547242Y28900D01*
X545380Y30762D01*
X543100Y32078D01*
X542554Y32225D01*
Y96359D01*
X542301Y97627D01*
X541583Y98702D01*
X540334Y99951D01*
X541750Y102404D01*
X542500Y105202D01*
Y108098D01*
X541750Y110896D01*
X540302Y113404D01*
X538254Y115452D01*
X535746Y116900D01*
X532948Y117650D01*
D02*
G37*
G36*
X151000Y124750D02*
X127000D01*
Y78750D01*
X135686D01*
Y76750D01*
X135939Y75482D01*
X136657Y74407D01*
X176811Y34253D01*
Y32900D01*
X167350D01*
Y12100D01*
X194350D01*
Y32900D01*
X183438D01*
Y35626D01*
X183186Y36894D01*
X182467Y37969D01*
X142956Y77480D01*
X143482Y78750D01*
X151000D01*
Y124750D01*
D02*
G37*
G36*
X134000Y54500D02*
X111750D01*
Y43250D01*
X132774D01*
X132831Y43250D01*
X132832Y43250D01*
X133745Y43250D01*
X133998Y41980D01*
X131411Y40908D01*
X128544Y38993D01*
X126107Y36556D01*
X124192Y33689D01*
X122872Y30505D01*
X122200Y27124D01*
Y23676D01*
X122872Y20295D01*
X124192Y17111D01*
X126107Y14244D01*
X128544Y11807D01*
X131411Y9892D01*
X134595Y8572D01*
X137976Y7900D01*
X141424D01*
X144805Y8572D01*
X147989Y9892D01*
X150856Y11807D01*
X153293Y14244D01*
X155208Y17111D01*
X156528Y20295D01*
X157200Y23676D01*
Y27124D01*
X156528Y30505D01*
X155208Y33689D01*
X153293Y36556D01*
X150856Y38993D01*
X147989Y40908D01*
X144805Y42228D01*
X141424Y42900D01*
X137976D01*
X135219Y42351D01*
X134595Y42228D01*
X134000Y43355D01*
X134000Y44396D01*
X134000Y44396D01*
X134000Y44415D01*
Y54500D01*
D02*
G37*
G36*
X48977Y37000D02*
X46023D01*
X43125Y36423D01*
X40395Y35293D01*
X37938Y33651D01*
X35849Y31562D01*
X34207Y29105D01*
X33076Y26375D01*
X32500Y23477D01*
Y20523D01*
X33076Y17625D01*
X34207Y14895D01*
X35849Y12438D01*
X37938Y10349D01*
X40395Y8707D01*
X43125Y7576D01*
X46023Y7000D01*
X48977D01*
X51875Y7576D01*
X54605Y8707D01*
X57062Y10349D01*
X59151Y12438D01*
X60793Y14895D01*
X61923Y17625D01*
X62500Y20523D01*
Y23477D01*
X61923Y26375D01*
X60793Y29105D01*
X59151Y31562D01*
X57062Y33651D01*
X54605Y35293D01*
X51875Y36423D01*
X48977Y37000D01*
D02*
G37*
%LPD*%
G36*
X156292Y482166D02*
X155740Y482019D01*
X153460Y480702D01*
X151598Y478840D01*
X150281Y476560D01*
X149600Y474016D01*
Y472786D01*
X143633Y466819D01*
X143632Y466819D01*
Y466819D01*
X142914Y465744D01*
X142723Y464782D01*
X142189Y463983D01*
X141936Y462715D01*
Y439774D01*
X142189Y438506D01*
X142725Y437703D01*
X142913Y436757D01*
X143631Y435682D01*
X160424Y418889D01*
X160424Y418889D01*
X160431Y418883D01*
X161506Y418164D01*
X162467Y417973D01*
X163267Y417439D01*
X164535Y417186D01*
X218715D01*
X219983Y417439D01*
X220782Y417973D01*
X221744Y418164D01*
X222819Y418882D01*
X241864Y437928D01*
X243363Y437630D01*
X243761Y436668D01*
X245168Y435261D01*
X247005Y434500D01*
X248995D01*
X250832Y435261D01*
X251609Y436038D01*
X252355Y435981D01*
X253000Y435000D01*
X253000D01*
X253000Y435000D01*
Y423000D01*
X253000D01*
X253000Y422000D01*
X253000D01*
Y410000D01*
X254972D01*
X255081Y409770D01*
X254277Y408500D01*
X254000D01*
Y395500D01*
X257186D01*
Y389000D01*
X257439Y387732D01*
X258157Y386657D01*
X261186Y383627D01*
Y378000D01*
X261250Y377680D01*
Y373994D01*
X261001D01*
Y373750D01*
X251000D01*
Y363814D01*
X246122D01*
X244860Y365077D01*
X245346Y366250D01*
X246750D01*
Y379250D01*
X233750D01*
Y366250D01*
X236936D01*
Y366035D01*
X237189Y364767D01*
X237723Y363968D01*
X237914Y363006D01*
X238633Y361931D01*
X241681Y358882D01*
X242756Y358164D01*
X243718Y357973D01*
X244517Y357439D01*
X245786Y357186D01*
X250500D01*
Y356750D01*
X257000D01*
Y354250D01*
X250500D01*
Y352304D01*
X227125D01*
X226052Y352090D01*
X225142Y351483D01*
X224964Y351304D01*
X202000D01*
Y360000D01*
X200298D01*
X200250Y361250D01*
X200250Y361270D01*
Y362020D01*
X201520Y362762D01*
X202755Y362250D01*
X204745D01*
X206582Y363011D01*
X207989Y364418D01*
X208750Y366255D01*
Y368245D01*
X207989Y370082D01*
X206582Y371489D01*
X204745Y372250D01*
X202755D01*
X201520Y371738D01*
X200250Y372480D01*
Y372750D01*
X195239D01*
X154794Y413194D01*
X153306Y414189D01*
X151550Y414538D01*
X120870D01*
X120797Y414909D01*
X119515Y418003D01*
X117655Y420787D01*
X115287Y423155D01*
X112502Y425015D01*
X109409Y426297D01*
X106124Y426950D01*
X102776D01*
X99491Y426297D01*
X96397Y425015D01*
X93613Y423155D01*
X91245Y420787D01*
X89385Y418003D01*
X88103Y414909D01*
X87450Y411624D01*
Y408276D01*
X88103Y404991D01*
X89385Y401898D01*
X89895Y401134D01*
X80006Y391244D01*
X79011Y389756D01*
X78662Y388000D01*
Y310750D01*
X79011Y308994D01*
X80006Y307506D01*
X89595Y297917D01*
X89385Y297603D01*
X88103Y294509D01*
X87450Y291224D01*
Y287876D01*
X88103Y284591D01*
X89103Y282178D01*
X88026Y281459D01*
X33412Y336073D01*
X32391Y336856D01*
X32560Y338142D01*
Y419108D01*
X32391Y420394D01*
X33412Y421177D01*
X82323Y470088D01*
X83106Y471109D01*
X84392Y470940D01*
X119576D01*
X127008Y463508D01*
X128470Y462386D01*
X130173Y461680D01*
X132000Y461440D01*
X133827Y461680D01*
X135530Y462386D01*
X136992Y463508D01*
X138114Y464970D01*
X138820Y466673D01*
X139060Y468500D01*
X138820Y470327D01*
X138114Y472030D01*
X136992Y473492D01*
X128319Y482166D01*
X128845Y483436D01*
X156125D01*
X156292Y482166D01*
D02*
G37*
G36*
X160850Y436800D02*
X160982D01*
X163653Y437516D01*
X166047Y438898D01*
X167172Y440023D01*
X167446Y440025D01*
X168527Y439581D01*
X168689Y438767D01*
X169223Y437968D01*
X169414Y437006D01*
X170133Y435931D01*
X180925Y425139D01*
X180932Y425132D01*
X181004Y425084D01*
X180619Y423814D01*
X164872D01*
X148564Y440123D01*
Y443013D01*
X149816Y443247D01*
X151198Y440853D01*
X153153Y438898D01*
X155547Y437516D01*
X158218Y436800D01*
X158350D01*
Y447300D01*
X160850D01*
Y436800D01*
D02*
G37*
G36*
X181088Y373923D02*
X180602Y372750D01*
X173750D01*
Y361250D01*
X173750D01*
X173702Y360000D01*
X172000D01*
Y354443D01*
X170827Y353956D01*
X168439Y356344D01*
Y366196D01*
X168226Y367269D01*
X167618Y368178D01*
X158814Y376983D01*
X157904Y377590D01*
X156831Y377804D01*
X146269D01*
X145196Y377590D01*
X144286Y376983D01*
X138067Y370764D01*
X137406Y369883D01*
X136419Y370409D01*
X135217Y371103D01*
X132801Y371750D01*
X130299D01*
X127883Y371103D01*
X125717Y369852D01*
X123948Y368083D01*
X122697Y365917D01*
X122050Y363501D01*
Y360999D01*
X122697Y358583D01*
X123948Y356417D01*
X125717Y354648D01*
X127883Y353397D01*
X130299Y352750D01*
X132801D01*
X135217Y353397D01*
X137383Y354648D01*
X139152Y356417D01*
X140403Y358583D01*
X140893Y360412D01*
X142207D01*
X142697Y358583D01*
X143948Y356417D01*
X145717Y354648D01*
X147883Y353397D01*
X150299Y352750D01*
X152801D01*
X155217Y353397D01*
X157383Y354648D01*
X158561Y355826D01*
X159831Y355300D01*
Y353940D01*
X160045Y352867D01*
X160653Y351958D01*
X169093Y343517D01*
X170002Y342910D01*
X171075Y342696D01*
X172000D01*
Y334000D01*
X173702D01*
X173750Y332750D01*
X173750D01*
Y321563D01*
X173750Y321250D01*
X174250Y320187D01*
X174250Y319980D01*
Y315250D01*
X180250D01*
X186250D01*
Y320500D01*
X186209D01*
X185250Y321250D01*
X185250Y321770D01*
Y332750D01*
X185048D01*
X185000Y334000D01*
X185000D01*
Y346000D01*
X177265D01*
X176861Y346604D01*
X176465Y347000D01*
X176861Y347396D01*
X177265Y348000D01*
X185000D01*
Y360000D01*
X185000D01*
X185048Y361250D01*
X185250D01*
Y368102D01*
X186423Y368588D01*
X188750Y366261D01*
Y361250D01*
X188952D01*
X189000Y360000D01*
X189000Y359980D01*
Y348000D01*
X196864D01*
X197267Y347396D01*
X197663Y347000D01*
X197267Y346604D01*
X196864Y346000D01*
X189000D01*
Y334020D01*
X189000Y334000D01*
X188952Y332750D01*
X188750D01*
Y321250D01*
X188750D01*
X188702Y320000D01*
X188250D01*
Y308000D01*
X198268D01*
X198794Y306730D01*
X153166Y261102D01*
X114038D01*
X112770Y260849D01*
X111695Y260131D01*
X103877Y252314D01*
X98250D01*
Y267500D01*
X95693D01*
X95570Y268435D01*
X95019Y269765D01*
X95011Y269842D01*
X94068Y272953D01*
X92856Y275220D01*
X93574Y276270D01*
X93679Y276301D01*
X96397Y274485D01*
X99491Y273203D01*
X102776Y272550D01*
X106124D01*
X109409Y273203D01*
X112502Y274485D01*
X115287Y276345D01*
X117655Y278713D01*
X119515Y281497D01*
X120797Y284591D01*
X121450Y287876D01*
Y291224D01*
X120797Y294509D01*
X119515Y297603D01*
X117655Y300387D01*
X115287Y302755D01*
X112502Y304615D01*
X109409Y305897D01*
X106124Y306550D01*
X102776D01*
X99491Y305897D01*
X96397Y304615D01*
X96083Y304405D01*
X87838Y312651D01*
Y386100D01*
X96557Y394819D01*
X99491Y393603D01*
X102776Y392950D01*
X106124D01*
X109409Y393603D01*
X112502Y394885D01*
X115287Y396745D01*
X117655Y399113D01*
X119515Y401898D01*
X120797Y404991D01*
X120870Y405362D01*
X149649D01*
X181088Y373923D01*
D02*
G37*
G36*
X269657Y440657D02*
X270732Y439939D01*
X272000Y439686D01*
X274000D01*
Y436858D01*
X273439Y436018D01*
X273236Y435000D01*
X270000D01*
Y423000D01*
X270000D01*
X270000Y422000D01*
X270000D01*
Y410270D01*
X270000Y410000D01*
X269348Y409000D01*
X268500D01*
Y403250D01*
X282500D01*
Y408730D01*
X282500Y408937D01*
X283000Y410000D01*
X283000Y410063D01*
Y422000D01*
X283000D01*
X283000Y423000D01*
X283000D01*
Y435000D01*
X283000D01*
X282760Y435430D01*
X283505Y436700D01*
X284500D01*
Y443654D01*
X285673Y444140D01*
X296186Y433628D01*
Y384000D01*
X267814D01*
Y385000D01*
X267561Y386268D01*
X266843Y387343D01*
X263814Y390373D01*
Y395500D01*
X267000D01*
Y408500D01*
X265182D01*
X265067Y408730D01*
X265852Y410000D01*
X266000D01*
Y422000D01*
X266000D01*
X266000Y423000D01*
X266000D01*
Y435000D01*
X264088D01*
Y435950D01*
X263739Y437706D01*
X262744Y439194D01*
X262000Y439939D01*
Y446654D01*
X263173Y447140D01*
X269657Y440657D01*
D02*
G37*
G36*
X358050Y393211D02*
X359539Y392216D01*
X360608Y392004D01*
X362180Y391352D01*
X363065Y390761D01*
X364821Y390412D01*
X368660D01*
Y390000D01*
X387192D01*
X387660Y390000D01*
X388340Y389012D01*
Y380295D01*
X394526D01*
Y377696D01*
X393394Y376877D01*
X392495Y377250D01*
X390505D01*
X388668Y376489D01*
X387261Y375082D01*
X386500Y373245D01*
Y371936D01*
X379157Y364593D01*
X378439Y363518D01*
X378236Y362500D01*
X371500D01*
Y349500D01*
X383500D01*
Y349500D01*
X384245Y349809D01*
X390186Y343867D01*
Y302568D01*
X383084Y295466D01*
X383083Y295466D01*
Y295466D01*
X382365Y294391D01*
X382113Y293123D01*
X382114Y293115D01*
X381917Y292639D01*
X381907Y292632D01*
X381189Y291557D01*
X380936Y290289D01*
Y288623D01*
X370173Y277859D01*
X369000Y278346D01*
Y286000D01*
X368681D01*
X367950Y287270D01*
X368228Y287750D01*
X370250D01*
Y300250D01*
X364206D01*
X363720Y301423D01*
X368483Y306186D01*
X376493D01*
X377418Y305261D01*
X379255Y304500D01*
X381245D01*
X383082Y305261D01*
X384489Y306668D01*
X385250Y308505D01*
Y310495D01*
X384489Y312332D01*
X383082Y313739D01*
X381245Y314500D01*
X379255D01*
X377418Y313739D01*
X376493Y312814D01*
X367111D01*
X365843Y312561D01*
X364768Y311843D01*
X353419Y300494D01*
X352250Y300250D01*
X352250Y300250D01*
X352250Y300250D01*
X345064D01*
Y332000D01*
X348250D01*
Y339000D01*
Y346000D01*
X343000D01*
Y338684D01*
X341827Y338198D01*
X331432Y348593D01*
X330357Y349311D01*
X329089Y349564D01*
X320419D01*
X319151Y349311D01*
X318406Y348814D01*
X313000D01*
Y352686D01*
X343500D01*
Y349500D01*
X355500D01*
Y349582D01*
X356770Y350387D01*
X357000Y350278D01*
Y348500D01*
X370000D01*
Y361500D01*
X357000D01*
Y361223D01*
X355730Y360419D01*
X355500Y360528D01*
Y362500D01*
X343500D01*
Y359314D01*
X313000D01*
Y362835D01*
X313482Y363157D01*
X316093Y365768D01*
X316811Y366843D01*
X317064Y368111D01*
Y432538D01*
X318237Y433024D01*
X358050Y393211D01*
D02*
G37*
G36*
X412874Y385256D02*
X414362Y384261D01*
X416118Y383912D01*
X417500D01*
Y382000D01*
X430500D01*
Y383294D01*
X431050Y383465D01*
X432250Y382563D01*
Y380548D01*
X431000Y380500D01*
X430980Y380500D01*
X425250D01*
Y374750D01*
X431580D01*
X432270Y375079D01*
X432743Y374694D01*
X432750Y374679D01*
Y366750D01*
X446750D01*
Y366912D01*
X451357D01*
X453112Y367261D01*
X454601Y368256D01*
X458577Y372231D01*
X459750Y371745D01*
Y366750D01*
X469352D01*
X469838Y365577D01*
X466534Y362273D01*
X466435Y362125D01*
X466252Y362161D01*
X440467D01*
X438711Y361812D01*
X437222Y360818D01*
X427452Y351048D01*
X426458Y349559D01*
X426109Y347803D01*
Y335550D01*
X420814D01*
Y355965D01*
X420561Y357233D01*
X420027Y358032D01*
X419836Y358994D01*
X419117Y360069D01*
X401154Y378032D01*
Y380295D01*
X407340D01*
Y389018D01*
X408610Y389519D01*
X412874Y385256D01*
D02*
G37*
G36*
X494776Y394985D02*
X495011Y394418D01*
X495162Y394267D01*
Y376465D01*
Y358329D01*
X487421Y350588D01*
X477750D01*
Y352500D01*
X469045D01*
X468660Y353770D01*
X468893Y353926D01*
X470466Y354577D01*
X471534Y354790D01*
X473023Y355784D01*
X477789Y360550D01*
X478784Y362039D01*
X478996Y363107D01*
X479648Y364680D01*
X480239Y365565D01*
X480588Y367321D01*
Y367500D01*
X483250D01*
Y374500D01*
Y381500D01*
X480588D01*
Y383000D01*
X491000D01*
Y396000D01*
X478000D01*
Y395088D01*
X473750D01*
Y395250D01*
X459750D01*
Y393148D01*
X458577Y392662D01*
X457494Y393744D01*
X456006Y394739D01*
X454250Y395088D01*
X446750D01*
Y395250D01*
X444338D01*
Y399671D01*
X444579Y399912D01*
X489850D01*
X494776Y394985D01*
D02*
G37*
G36*
X529912Y371635D02*
Y264900D01*
X487173Y222162D01*
X486000Y222648D01*
Y222745D01*
X485239Y224582D01*
X483832Y225989D01*
X481995Y226750D01*
X480005D01*
X478168Y225989D01*
X476761Y224582D01*
X476000Y222745D01*
Y220755D01*
X476412Y219761D01*
Y211500D01*
X474500D01*
Y198500D01*
X476412D01*
Y193076D01*
X473946Y191652D01*
X471898Y189604D01*
X470450Y187096D01*
X469700Y184298D01*
Y181402D01*
X470450Y178604D01*
X471898Y176096D01*
X473946Y174048D01*
X475616Y173084D01*
X475276Y171814D01*
X461725D01*
X461384Y173084D01*
X462361Y173648D01*
X464502Y175789D01*
X466016Y178411D01*
X466800Y181336D01*
Y181600D01*
X455300D01*
Y182850D01*
D01*
Y181600D01*
X443800D01*
Y181336D01*
X444584Y178411D01*
X446098Y175789D01*
X448239Y173648D01*
X449216Y173084D01*
X448876Y171814D01*
X435325D01*
X434984Y173084D01*
X436654Y174048D01*
X438702Y176096D01*
X440150Y178604D01*
X440900Y181402D01*
Y184298D01*
X440150Y187096D01*
X438702Y189604D01*
X436654Y191652D01*
X434146Y193100D01*
X433214Y193350D01*
Y194500D01*
X432961Y195768D01*
X432243Y196843D01*
X431259Y197827D01*
X431745Y199000D01*
X433000D01*
Y211000D01*
X432346D01*
X431860Y212173D01*
X432093Y212407D01*
X432811Y213482D01*
X433064Y214750D01*
X433750D01*
Y238750D01*
X425750D01*
Y215436D01*
X424157Y213843D01*
X423439Y212768D01*
X423186Y211500D01*
Y211000D01*
X420000D01*
Y199000D01*
X423186D01*
Y197900D01*
X423439Y196632D01*
X424157Y195557D01*
X425456Y194258D01*
X425124Y192794D01*
X423146Y191652D01*
X421098Y189604D01*
X419650Y187096D01*
X418900Y184298D01*
Y181402D01*
X419650Y178604D01*
X421098Y176096D01*
X423146Y174048D01*
X424816Y173084D01*
X424476Y171814D01*
X409925D01*
X409584Y173084D01*
X411254Y174048D01*
X413302Y176096D01*
X414750Y178604D01*
X415500Y181402D01*
Y184298D01*
X414750Y187096D01*
X413302Y189604D01*
X411254Y191652D01*
X409924Y192420D01*
X410018Y193832D01*
X411843Y195657D01*
X412561Y196732D01*
X412814Y198000D01*
Y199000D01*
X416000D01*
Y211000D01*
X412814D01*
X412561Y212268D01*
X411843Y213343D01*
X409750Y215436D01*
Y238750D01*
X401750D01*
Y214750D01*
X402436D01*
X402689Y213482D01*
X403407Y212407D01*
X403641Y212173D01*
X403154Y211000D01*
X403000D01*
Y199000D01*
X402505Y198579D01*
X402161Y198346D01*
X402157Y198343D01*
X401439Y197268D01*
X401186Y196000D01*
Y193350D01*
X400254Y193100D01*
X397746Y191652D01*
X395698Y189604D01*
X394250Y187096D01*
X393500Y184298D01*
Y181402D01*
X394250Y178604D01*
X395698Y176096D01*
X397746Y174048D01*
X399416Y173084D01*
X399076Y171814D01*
X394823D01*
X388868Y177768D01*
X389350Y178604D01*
X390100Y181402D01*
Y184298D01*
X389350Y187096D01*
X387902Y189604D01*
X385854Y191652D01*
X383346Y193100D01*
X380548Y193850D01*
X377652D01*
X374854Y193100D01*
X372346Y191652D01*
X370298Y189604D01*
X368850Y187096D01*
X368100Y184298D01*
Y181402D01*
X368850Y178604D01*
X370298Y176096D01*
X372346Y174048D01*
X374854Y172600D01*
X377652Y171850D01*
X380548D01*
X383346Y172600D01*
X384182Y173082D01*
X390375Y166889D01*
X390382Y166882D01*
X391457Y166164D01*
X392419Y165972D01*
X393218Y165439D01*
X394486Y165186D01*
X405754D01*
X406280Y163916D01*
X358782Y116418D01*
X357946Y116900D01*
X355148Y117650D01*
X352252D01*
X349454Y116900D01*
X346946Y115452D01*
X345334Y113840D01*
X344064Y114366D01*
Y175134D01*
X345334Y175660D01*
X346946Y174048D01*
X349454Y172600D01*
X352252Y171850D01*
X355148D01*
X357946Y172600D01*
X360454Y174048D01*
X362502Y176096D01*
X363950Y178604D01*
X364700Y181402D01*
Y184298D01*
X363950Y187096D01*
X362502Y189604D01*
X360454Y191652D01*
X357946Y193100D01*
X355148Y193850D01*
X352252D01*
X349454Y193100D01*
X346946Y191652D01*
X346022Y190729D01*
X344666Y191168D01*
X344576Y191728D01*
X357115Y204267D01*
X357833Y205342D01*
X358024Y206302D01*
X358561Y207106D01*
X358814Y208374D01*
Y242706D01*
X360084Y243485D01*
X361255Y243000D01*
X363245D01*
X365082Y243761D01*
X366029Y244707D01*
X465323Y245263D01*
X466590Y245522D01*
X467374Y246052D01*
X468320Y246240D01*
X469395Y246959D01*
X473117Y250681D01*
X473836Y251756D01*
X474027Y252718D01*
X474561Y253517D01*
X474814Y254785D01*
Y287950D01*
X481000D01*
Y297450D01*
X462000D01*
Y287950D01*
X468186D01*
Y259656D01*
X466916Y259404D01*
X466739Y259832D01*
X465332Y261239D01*
X463822Y261864D01*
X461000Y264686D01*
Y271437D01*
X461500Y272500D01*
X461500Y273063D01*
Y277750D01*
X447500D01*
Y273063D01*
X447500Y272500D01*
X448000Y271437D01*
Y271230D01*
Y260000D01*
X456314D01*
X457740Y258574D01*
X457500Y257995D01*
Y256005D01*
X458261Y254168D01*
X459303Y253126D01*
X458793Y251853D01*
X365987Y251335D01*
X365082Y252239D01*
X363245Y253000D01*
X362139D01*
X361613Y254270D01*
X390593Y283250D01*
X391311Y284325D01*
X391564Y285593D01*
Y288917D01*
X406827Y304180D01*
X408000Y303694D01*
Y300650D01*
X427000D01*
Y302086D01*
X429728D01*
X434186Y297627D01*
Y285000D01*
X431000D01*
Y273000D01*
X431000D01*
X431000Y272000D01*
X431000D01*
Y260000D01*
X444000D01*
Y272000D01*
X444000D01*
X444000Y273000D01*
X444000D01*
Y285000D01*
X440814D01*
Y299000D01*
X440561Y300268D01*
X439843Y301343D01*
X433443Y307743D01*
X432368Y308461D01*
X431100Y308714D01*
X427000D01*
Y310150D01*
X420246D01*
X419759Y311323D01*
X419843Y311407D01*
X420561Y312482D01*
X420734Y313350D01*
X427000D01*
Y316361D01*
X433941Y323302D01*
X434936Y324791D01*
X435285Y326547D01*
Y345903D01*
X442367Y352985D01*
X449250D01*
Y347250D01*
X463250D01*
Y351786D01*
X463480Y351934D01*
X464750Y351242D01*
Y339500D01*
X466912D01*
Y335550D01*
X462000D01*
Y326050D01*
X481000D01*
Y335550D01*
X476088D01*
Y339500D01*
X477750D01*
Y341412D01*
X489321D01*
X491077Y341761D01*
X492565Y342756D01*
X502994Y353185D01*
X503989Y354673D01*
X504338Y356429D01*
Y371876D01*
X529671D01*
X529912Y371635D01*
D02*
G37*
G36*
X234643Y342426D02*
X234181Y342118D01*
X207067Y315003D01*
X206080Y315812D01*
X206086Y315821D01*
X206277Y316782D01*
X206811Y317582D01*
X207064Y318850D01*
Y323493D01*
X207989Y324418D01*
X208750Y326255D01*
Y328245D01*
X207989Y330082D01*
X206582Y331489D01*
X204745Y332250D01*
X202755D01*
X201520Y331738D01*
X200250Y332480D01*
Y332730D01*
X200250Y332750D01*
X200298Y334000D01*
X202000D01*
Y342696D01*
X227368D01*
X228441Y342910D01*
X229350Y343517D01*
X229529Y343696D01*
X234258D01*
X234643Y342426D01*
D02*
G37*
G36*
X259673Y331510D02*
X259142Y330462D01*
X258506Y330336D01*
X257431Y329618D01*
X252132Y324319D01*
X251414Y323244D01*
X251223Y322282D01*
X250689Y321483D01*
X250436Y320215D01*
Y291500D01*
X250689Y290232D01*
X251407Y289157D01*
X255294Y285270D01*
X254768Y284000D01*
X254000D01*
Y281314D01*
X253286D01*
X252017Y281061D01*
X251218Y280527D01*
X250256Y280336D01*
X249181Y279617D01*
X247139Y277575D01*
X246421Y276500D01*
X246231Y275544D01*
X245689Y274732D01*
X245436Y273465D01*
Y266623D01*
X245314Y266500D01*
X237000D01*
Y259099D01*
X236770Y258945D01*
X235500Y259624D01*
Y267000D01*
X229750D01*
Y260000D01*
Y253000D01*
X230154D01*
X230641Y251827D01*
X225157Y246343D01*
X224439Y245268D01*
X224186Y244000D01*
Y235250D01*
X198000D01*
Y216250D01*
X257000D01*
Y235250D01*
X230814D01*
Y242628D01*
X241686Y253500D01*
X250000D01*
Y261814D01*
X250367Y262181D01*
X251086Y263256D01*
X251277Y264218D01*
X251811Y265017D01*
X252064Y266285D01*
Y272801D01*
X252763Y273347D01*
X254000Y272793D01*
Y272000D01*
X267000D01*
Y284000D01*
X263064D01*
Y285500D01*
X262811Y286768D01*
X262093Y287843D01*
X257064Y292873D01*
Y302954D01*
X258334Y303480D01*
X267889Y293925D01*
X274186Y287627D01*
Y284000D01*
X271000D01*
Y272000D01*
X279314D01*
X279657Y271657D01*
X280732Y270939D01*
X282000Y270686D01*
X283127D01*
X292000Y261814D01*
Y253500D01*
X295186D01*
Y251250D01*
X295439Y249982D01*
X296157Y248907D01*
X305907Y239157D01*
X306982Y238439D01*
X308250Y238186D01*
X309186D01*
Y235250D01*
X283000D01*
Y216250D01*
X337998D01*
X338484Y215077D01*
X331721Y208314D01*
X287000D01*
X285732Y208061D01*
X284657Y207343D01*
X264907Y187593D01*
X264189Y186518D01*
X263936Y185250D01*
Y181750D01*
X261250D01*
Y168750D01*
X273250D01*
Y181750D01*
X270564D01*
Y183878D01*
X288373Y201686D01*
X289704D01*
X290230Y200416D01*
X278907Y189093D01*
X278189Y188018D01*
X277936Y186750D01*
Y181750D01*
X275250D01*
Y168750D01*
X287250D01*
Y181750D01*
X284564D01*
Y185378D01*
X295873Y196686D01*
X316454D01*
X316980Y195416D01*
X314858Y193294D01*
X314858Y193294D01*
Y193294D01*
X314140Y192219D01*
X313949Y191258D01*
X313414Y190458D01*
X313225Y189507D01*
X312302Y189224D01*
X311912Y189240D01*
X311702Y189604D01*
X309654Y191652D01*
X307146Y193100D01*
X304348Y193850D01*
X301452D01*
X298654Y193100D01*
X296146Y191652D01*
X294098Y189604D01*
X292650Y187096D01*
X291900Y184298D01*
Y181402D01*
X292650Y178604D01*
X294098Y176096D01*
X296146Y174048D01*
X298654Y172600D01*
X301452Y171850D01*
X304348D01*
X307146Y172600D01*
X309654Y174048D01*
X311702Y176096D01*
X311892Y176425D01*
X313162Y176084D01*
Y113416D01*
X311892Y113075D01*
X311702Y113404D01*
X309654Y115452D01*
X307146Y116900D01*
X304348Y117650D01*
X301452D01*
X298654Y116900D01*
X296146Y115452D01*
X294098Y113404D01*
X292650Y110896D01*
X291900Y108098D01*
Y105202D01*
X292199Y104086D01*
X291061Y103428D01*
X271700Y122789D01*
X270211Y123784D01*
X269143Y123996D01*
X267570Y124648D01*
X266685Y125239D01*
X264929Y125588D01*
X261500D01*
Y140500D01*
X257588D01*
Y145750D01*
X257239Y147506D01*
X256244Y148994D01*
X249494Y155744D01*
X248006Y156739D01*
X246250Y157088D01*
X232000D01*
Y159000D01*
X219000D01*
Y146000D01*
X220912D01*
Y139989D01*
X220500Y138995D01*
Y137005D01*
X221261Y135168D01*
X222668Y133761D01*
X224505Y133000D01*
X226495D01*
X228332Y133761D01*
X229739Y135168D01*
X230500Y137005D01*
Y138995D01*
X230088Y139989D01*
Y146000D01*
X232000D01*
Y147912D01*
X244349D01*
X248412Y143849D01*
Y140500D01*
X244500D01*
Y101500D01*
X261500D01*
Y116412D01*
X264929D01*
X265112Y116448D01*
X265211Y116300D01*
X313741Y67771D01*
X313889Y67672D01*
X313852Y67489D01*
Y31658D01*
X312300Y30762D01*
X310438Y28900D01*
X309122Y26620D01*
X308440Y24077D01*
Y21444D01*
X309122Y18901D01*
X310438Y16620D01*
X310562Y16497D01*
X310076Y15323D01*
X303040D01*
Y32760D01*
X283040D01*
Y15323D01*
X249623D01*
X240103Y24843D01*
X239028Y25561D01*
X237760Y25814D01*
X236150D01*
Y32900D01*
X227238D01*
Y58529D01*
X226889Y60285D01*
X226298Y61170D01*
X225646Y62743D01*
X225434Y63811D01*
X224439Y65300D01*
X221385Y68353D01*
X221385Y68354D01*
X189509Y100230D01*
X190035Y101500D01*
X192750D01*
Y140500D01*
X188838D01*
X188838Y173836D01*
X188489Y175591D01*
X187494Y177080D01*
X175463Y189111D01*
Y200125D01*
X175114Y201881D01*
X174119Y203369D01*
X160744Y216744D01*
X159256Y217739D01*
X157500Y218088D01*
X130250D01*
Y220000D01*
X117250D01*
Y218088D01*
X109250D01*
Y220250D01*
X100401D01*
X100010Y221458D01*
X100009Y221520D01*
X118151Y239662D01*
X182179D01*
X183935Y240011D01*
X184820Y240602D01*
X186393Y241254D01*
X187461Y241466D01*
X188950Y242461D01*
X226164Y279675D01*
X227159Y281164D01*
X227371Y282232D01*
X228023Y283806D01*
X228614Y284690D01*
X228963Y286446D01*
Y300511D01*
X229375Y301505D01*
Y302814D01*
X233836Y307275D01*
X234500Y307000D01*
Y307000D01*
X247500D01*
Y320000D01*
X245232D01*
X244706Y321270D01*
X255623Y332186D01*
X257000D01*
X257320Y332250D01*
X259188D01*
X259673Y331510D01*
D02*
G37*
G36*
X414186Y355628D02*
Y335550D01*
X408000D01*
Y326050D01*
X422052D01*
X422538Y324877D01*
X420511Y322850D01*
X408000D01*
Y314323D01*
X407943Y314311D01*
X406868Y313593D01*
X397987Y304712D01*
X396814Y305198D01*
Y344204D01*
X396561Y345472D01*
X396019Y346283D01*
X395829Y347240D01*
X395111Y348315D01*
X385815Y357611D01*
X384740Y358329D01*
X384643Y359643D01*
X384814Y360500D01*
Y360877D01*
X391186Y367250D01*
X392495D01*
X394332Y368011D01*
X395739Y369418D01*
X396500Y371255D01*
Y371518D01*
X397770Y372044D01*
X414186Y355628D01*
D02*
G37*
G36*
X249980Y335916D02*
X238657Y324593D01*
X237939Y323518D01*
X237686Y322250D01*
Y320000D01*
X234500D01*
Y316640D01*
X234107Y316561D01*
X233032Y315843D01*
X224689Y307500D01*
X223381D01*
X221543Y306739D01*
X220136Y305332D01*
X219375Y303495D01*
Y301505D01*
X219787Y300511D01*
Y286446D01*
X219823Y286263D01*
X219675Y286164D01*
X182461Y248950D01*
X182362Y248802D01*
X182179Y248838D01*
X116250D01*
X114494Y248489D01*
X113006Y247494D01*
X99423Y233912D01*
X98250Y234398D01*
Y245686D01*
X105250D01*
X106518Y245939D01*
X107593Y246657D01*
X115411Y254474D01*
X153503D01*
X154771Y254727D01*
X155570Y255261D01*
X156532Y255452D01*
X157607Y256171D01*
X238623Y337186D01*
X249454D01*
X249980Y335916D01*
D02*
G37*
G36*
X275750Y321500D02*
X276877D01*
X276940Y321406D01*
X277093Y320516D01*
X277783Y319423D01*
X279826Y317270D01*
X279300Y316000D01*
X277000D01*
Y303000D01*
X278912D01*
Y300739D01*
X278500Y299745D01*
Y297755D01*
X279261Y295918D01*
X280668Y294511D01*
X282505Y293750D01*
X284495D01*
X286332Y294511D01*
X287739Y295918D01*
X288500Y297755D01*
Y299745D01*
X288088Y300739D01*
Y303000D01*
X290000D01*
Y316000D01*
X286814D01*
Y317214D01*
X286561Y318482D01*
X286060Y319233D01*
X285907Y320123D01*
X285524Y320730D01*
X286141Y322000D01*
X296186D01*
Y321389D01*
X296439Y320121D01*
X297157Y319046D01*
X298530Y317673D01*
X298044Y316500D01*
X291500D01*
Y310750D01*
X298500D01*
Y309500D01*
X299750D01*
Y302500D01*
X305500D01*
X305936Y301411D01*
Y296775D01*
X306189Y295506D01*
X306724Y294705D01*
X306912Y293759D01*
X307631Y292684D01*
X325516Y274798D01*
X324962Y273555D01*
X323293Y272864D01*
X321886Y271457D01*
X321125Y269620D01*
Y268011D01*
X320763Y267425D01*
X320011Y267000D01*
X314750D01*
Y261250D01*
X320500D01*
Y265821D01*
X321770Y266073D01*
X321886Y265793D01*
X323293Y264386D01*
X325130Y263625D01*
X326439D01*
X339936Y250127D01*
Y235250D01*
X315814D01*
Y241500D01*
X315561Y242768D01*
X314843Y243843D01*
X313768Y244561D01*
X312500Y244814D01*
X309623D01*
X302206Y252230D01*
X302732Y253500D01*
X305000D01*
Y266500D01*
X296686D01*
X286843Y276343D01*
X285768Y277061D01*
X284500Y277314D01*
X284000D01*
Y284000D01*
X280814D01*
Y287964D01*
X280561Y289233D01*
X280027Y290032D01*
X279836Y290994D01*
X279118Y292069D01*
X272575Y298611D01*
X262814Y308372D01*
Y312127D01*
X271843Y321157D01*
X272072Y321500D01*
X273250D01*
Y328000D01*
X275750D01*
Y321500D01*
D02*
G37*
G36*
X337436Y174634D02*
Y114866D01*
X336166Y114340D01*
X335054Y115452D01*
X332546Y116900D01*
X329748Y117650D01*
X326852D01*
X324054Y116900D01*
X321546Y115452D01*
X320963Y114869D01*
X319789Y115355D01*
Y174145D01*
X320963Y174631D01*
X321546Y174048D01*
X324054Y172600D01*
X326852Y171850D01*
X329748D01*
X332546Y172600D01*
X335054Y174048D01*
X336166Y175160D01*
X337436Y174634D01*
D02*
G37*
G36*
X488882Y158666D02*
X488500Y157745D01*
Y155755D01*
X489261Y153918D01*
X490186Y152993D01*
Y115223D01*
X488916Y114697D01*
X487761Y115852D01*
X485139Y117366D01*
X482214Y118150D01*
X481950D01*
Y106650D01*
Y95150D01*
X482214D01*
X485139Y95934D01*
X487761Y97448D01*
X488916Y98603D01*
X490186Y98077D01*
Y46792D01*
X475189Y31795D01*
X474699Y32078D01*
X472156Y32760D01*
X469523D01*
X466980Y32078D01*
X464700Y30762D01*
X462838Y28900D01*
X461521Y26619D01*
X460840Y24076D01*
Y21443D01*
X461521Y18900D01*
X461804Y18410D01*
X458717Y15323D01*
X454480D01*
X454004Y16593D01*
X455224Y18707D01*
X455940Y21377D01*
Y21510D01*
X434940D01*
Y21377D01*
X435655Y18707D01*
X436875Y16593D01*
X436399Y15323D01*
X429080D01*
X428604Y16593D01*
X429825Y18708D01*
X430540Y21378D01*
Y21510D01*
X409540D01*
Y21378D01*
X410256Y18708D01*
X411477Y16593D01*
X411001Y15323D01*
X403005D01*
X402519Y16497D01*
X402642Y16620D01*
X403959Y18901D01*
X404640Y21444D01*
Y24077D01*
X404177Y25808D01*
X433244Y54876D01*
X434239Y56364D01*
X434588Y58120D01*
Y79000D01*
X436500D01*
Y92000D01*
X434588D01*
Y95250D01*
X434588Y95250D01*
Y96655D01*
X436654Y97848D01*
X438702Y99896D01*
X440150Y102404D01*
X440900Y105202D01*
Y108098D01*
X440150Y110896D01*
X438702Y113404D01*
X436654Y115452D01*
X434146Y116900D01*
X431348Y117650D01*
X428452D01*
X425654Y116900D01*
X423146Y115452D01*
X421098Y113404D01*
X419650Y110896D01*
X418900Y108098D01*
Y105202D01*
X419650Y102404D01*
X421098Y99896D01*
X423146Y97848D01*
X425412Y96540D01*
Y95250D01*
X425412Y95250D01*
Y92000D01*
X423500D01*
Y79000D01*
X425412D01*
Y60020D01*
X397688Y32297D01*
X395957Y32760D01*
X393324D01*
X390781Y32079D01*
X388500Y30762D01*
X386638Y28900D01*
X385322Y26620D01*
X384640Y24077D01*
Y21444D01*
X385322Y18901D01*
X386638Y16620D01*
X386762Y16497D01*
X386276Y15323D01*
X377605D01*
X377119Y16497D01*
X377242Y16620D01*
X378559Y18901D01*
X379240Y21444D01*
Y24077D01*
X378559Y26620D01*
X377242Y28900D01*
X375381Y30762D01*
X373100Y32079D01*
X372554Y32225D01*
Y59724D01*
X372302Y60992D01*
X371767Y61792D01*
X371576Y62753D01*
X370858Y63828D01*
X344064Y90623D01*
Y98934D01*
X345334Y99460D01*
X346946Y97848D01*
X349454Y96400D01*
X352252Y95650D01*
X355148D01*
X357946Y96400D01*
X360454Y97848D01*
X362502Y99896D01*
X363950Y102404D01*
X364700Y105202D01*
Y108098D01*
X363950Y110896D01*
X363468Y111732D01*
X411673Y159936D01*
X488033D01*
X488882Y158666D01*
D02*
G37*
G36*
X337436Y98434D02*
Y90286D01*
X337689Y89017D01*
X338222Y88219D01*
X338414Y87257D01*
X339132Y86182D01*
X339139Y86175D01*
X339139Y86175D01*
X365927Y59387D01*
Y32225D01*
X365381Y32079D01*
X363100Y30762D01*
X361238Y28900D01*
X359922Y26620D01*
X359240Y24077D01*
Y21444D01*
X359922Y18901D01*
X361238Y16620D01*
X361362Y16497D01*
X360876Y15323D01*
X352205D01*
X351719Y16497D01*
X351842Y16620D01*
X353159Y18901D01*
X353840Y21444D01*
Y24077D01*
X353159Y26620D01*
X351842Y28900D01*
X349981Y30762D01*
X347700Y32079D01*
X345264Y32732D01*
Y65015D01*
X345011Y66283D01*
X344477Y67082D01*
X344286Y68044D01*
X343568Y69119D01*
X319789Y92897D01*
Y97945D01*
X320963Y98431D01*
X321546Y97848D01*
X324054Y96400D01*
X326852Y95650D01*
X329748D01*
X332546Y96400D01*
X335054Y97848D01*
X336166Y98960D01*
X337436Y98434D01*
D02*
G37*
G36*
X313162Y99884D02*
Y91524D01*
X313414Y90256D01*
X314132Y89181D01*
X314139Y89175D01*
X314139Y89174D01*
X338636Y64677D01*
Y31303D01*
X337700Y30762D01*
X335838Y28900D01*
X334522Y26620D01*
X333840Y24077D01*
Y21444D01*
X334522Y18901D01*
X335838Y16620D01*
X335962Y16497D01*
X335476Y15323D01*
X326805D01*
X326319Y16497D01*
X326442Y16620D01*
X327759Y18901D01*
X328440Y21444D01*
Y24077D01*
X327759Y26620D01*
X326442Y28900D01*
X324580Y30762D01*
X323029Y31658D01*
Y67489D01*
X322679Y69244D01*
X322088Y70129D01*
X321437Y71702D01*
X321224Y72771D01*
X320229Y74259D01*
X299678Y94810D01*
X300336Y95949D01*
X301452Y95650D01*
X304348D01*
X307146Y96400D01*
X309654Y97848D01*
X311702Y99896D01*
X311892Y100225D01*
X313162Y99884D01*
D02*
G37*
%LPC*%
G36*
X120250Y464000D02*
X108500D01*
Y455750D01*
X120250D01*
Y464000D01*
D02*
G37*
G36*
X106000D02*
X94250D01*
Y455750D01*
X106000D01*
Y464000D01*
D02*
G37*
G36*
X120250Y453250D02*
X108500D01*
Y445000D01*
X120250D01*
Y453250D01*
D02*
G37*
G36*
X106000D02*
X94250D01*
Y445000D01*
X106000D01*
Y453250D01*
D02*
G37*
G36*
X247250Y394750D02*
X241500D01*
Y389000D01*
X247250D01*
Y394750D01*
D02*
G37*
G36*
X239000D02*
X233250D01*
Y389000D01*
X239000D01*
Y394750D01*
D02*
G37*
G36*
X247250Y386500D02*
X241500D01*
Y380750D01*
X247250D01*
Y386500D01*
D02*
G37*
G36*
X239000D02*
X233250D01*
Y380750D01*
X239000D01*
Y386500D01*
D02*
G37*
G36*
X130300Y347250D02*
X130233D01*
X127690Y346568D01*
X125410Y345252D01*
X123548Y343390D01*
X122232Y341110D01*
X121550Y338567D01*
Y338500D01*
X130300D01*
Y347250D01*
D02*
G37*
G36*
X132866D02*
X132800D01*
Y337250D01*
Y327250D01*
X132866D01*
X135410Y327932D01*
X136213Y328395D01*
X136993Y327379D01*
X126427Y316814D01*
X112507D01*
X111582Y317739D01*
X109745Y318500D01*
X107755D01*
X105918Y317739D01*
X104511Y316332D01*
X103750Y314495D01*
Y312505D01*
X104511Y310668D01*
X105918Y309261D01*
X107755Y308500D01*
X109745D01*
X111582Y309261D01*
X112507Y310186D01*
X127800D01*
X129068Y310439D01*
X130143Y311157D01*
X147566Y328580D01*
X147883Y328397D01*
X150299Y327750D01*
X152801D01*
X155217Y328397D01*
X157383Y329648D01*
X159152Y331417D01*
X160403Y333583D01*
X161050Y335999D01*
Y338501D01*
X160403Y340917D01*
X159152Y343083D01*
X157383Y344852D01*
X155217Y346103D01*
X152801Y346750D01*
X150299D01*
X147883Y346103D01*
X145717Y344852D01*
X143948Y343083D01*
X142697Y340917D01*
X142466Y340054D01*
X141151D01*
X140869Y341110D01*
X139552Y343390D01*
X137690Y345252D01*
X135410Y346568D01*
X132866Y347250D01*
D02*
G37*
G36*
X130300Y336000D02*
X121550D01*
Y335933D01*
X122232Y333390D01*
X123548Y331110D01*
X125410Y329248D01*
X127690Y327932D01*
X130233Y327250D01*
X130300D01*
Y336000D01*
D02*
G37*
G36*
X186250Y312750D02*
X181500D01*
Y307500D01*
X186250D01*
Y312750D01*
D02*
G37*
G36*
X179000D02*
X174250D01*
Y307500D01*
X179000D01*
Y312750D01*
D02*
G37*
G36*
X282500Y400750D02*
X276750D01*
Y395000D01*
X282500D01*
Y400750D01*
D02*
G37*
G36*
X274250D02*
X268500D01*
Y395000D01*
X274250D01*
Y400750D01*
D02*
G37*
G36*
X357000Y346500D02*
X355937Y346000D01*
X355730Y346000D01*
X350750D01*
Y339000D01*
Y332000D01*
X356000D01*
Y332848D01*
X357000Y333500D01*
X357270Y333500D01*
X370000D01*
Y333964D01*
X371270Y334768D01*
X371500Y334659D01*
Y332500D01*
X383500D01*
Y345500D01*
X371500D01*
Y345220D01*
X370230Y344462D01*
X370000Y344586D01*
Y346500D01*
X357063D01*
X357000Y346500D01*
D02*
G37*
G36*
X422750Y380500D02*
X417000D01*
Y374750D01*
X422750D01*
Y380500D01*
D02*
G37*
G36*
X431000Y372250D02*
X425250D01*
Y366500D01*
X431000D01*
Y372250D01*
D02*
G37*
G36*
X422750D02*
X417000D01*
Y366500D01*
X422750D01*
Y372250D01*
D02*
G37*
G36*
X491500Y381500D02*
X485750D01*
Y375750D01*
X491500D01*
Y381500D01*
D02*
G37*
G36*
Y373250D02*
X485750D01*
Y367500D01*
X491500D01*
Y373250D01*
D02*
G37*
G36*
X463250Y344750D02*
X457500D01*
Y339000D01*
X463250D01*
Y344750D01*
D02*
G37*
G36*
X455000D02*
X449250D01*
Y339000D01*
X455000D01*
Y344750D01*
D02*
G37*
G36*
X503000Y324750D02*
X491000D01*
Y321414D01*
X481000D01*
Y322850D01*
X462000D01*
Y313350D01*
X477854D01*
X478340Y312177D01*
X476314Y310150D01*
X462000D01*
Y300650D01*
X481000D01*
Y305464D01*
X488093Y312557D01*
X488811Y313632D01*
X489041Y314786D01*
X491000D01*
Y311750D01*
X502980D01*
X503000Y311750D01*
X504250Y311702D01*
Y311000D01*
X509750D01*
Y317750D01*
Y324500D01*
X504270D01*
X504250Y324500D01*
X503000Y324548D01*
Y324750D01*
D02*
G37*
G36*
X512250Y324500D02*
Y319000D01*
X517750D01*
Y324500D01*
X512250D01*
D02*
G37*
G36*
X517750Y316500D02*
X512250D01*
Y311000D01*
X517750D01*
Y316500D01*
D02*
G37*
G36*
X427500Y297950D02*
X418750D01*
Y293950D01*
X427500D01*
Y297950D01*
D02*
G37*
G36*
X416250D02*
X407500D01*
Y293950D01*
X416250D01*
Y297950D01*
D02*
G37*
G36*
X503000Y307750D02*
X491000D01*
Y294750D01*
X503000D01*
Y294771D01*
X504270Y295552D01*
X504750Y295309D01*
Y293500D01*
X517250D01*
Y306000D01*
X504750D01*
Y306000D01*
X503509Y305490D01*
X503000Y305745D01*
Y307750D01*
D02*
G37*
G36*
X427500Y291450D02*
X418750D01*
Y287450D01*
X427500D01*
Y291450D01*
D02*
G37*
G36*
X416250D02*
X407500D01*
Y287450D01*
X416250D01*
Y291450D01*
D02*
G37*
G36*
X461500Y285500D02*
X455750D01*
Y280250D01*
X461500D01*
Y285500D01*
D02*
G37*
G36*
X453250D02*
X447500D01*
Y280250D01*
X453250D01*
Y285500D01*
D02*
G37*
G36*
X422250Y239250D02*
X419000D01*
Y228000D01*
X422250D01*
Y239250D01*
D02*
G37*
G36*
X416500D02*
X413250D01*
Y228000D01*
X416500D01*
Y239250D01*
D02*
G37*
G36*
X422250Y225500D02*
X419000D01*
Y214250D01*
X422250D01*
Y225500D01*
D02*
G37*
G36*
X416500D02*
X413250D01*
Y214250D01*
X416500D01*
Y225500D01*
D02*
G37*
G36*
X473000Y212000D02*
X467250D01*
Y206250D01*
X473000D01*
Y212000D01*
D02*
G37*
G36*
X464750D02*
X459000D01*
Y206250D01*
X464750D01*
Y212000D01*
D02*
G37*
G36*
X473000Y203750D02*
X467250D01*
Y198000D01*
X473000D01*
Y203750D01*
D02*
G37*
G36*
X464750D02*
X459000D01*
Y198000D01*
X464750D01*
Y203750D01*
D02*
G37*
G36*
X456814Y194350D02*
X456550D01*
Y184100D01*
X466800D01*
Y184364D01*
X466016Y187289D01*
X464502Y189911D01*
X462361Y192052D01*
X459739Y193566D01*
X456814Y194350D01*
D02*
G37*
G36*
X454050D02*
X453786D01*
X450861Y193566D01*
X448239Y192052D01*
X446098Y189911D01*
X444584Y187289D01*
X443800Y184364D01*
Y184100D01*
X454050D01*
Y194350D01*
D02*
G37*
G36*
X248000Y305500D02*
X242250D01*
Y299750D01*
X248000D01*
Y305500D01*
D02*
G37*
G36*
X239750D02*
X234000D01*
Y299750D01*
X239750D01*
Y305500D01*
D02*
G37*
G36*
X248000Y297250D02*
X242250D01*
Y291500D01*
X248000D01*
Y297250D01*
D02*
G37*
G36*
X239750D02*
X234000D01*
Y291500D01*
X239750D01*
Y297250D01*
D02*
G37*
G36*
X227250Y267000D02*
X221500D01*
Y261250D01*
X227250D01*
Y267000D01*
D02*
G37*
G36*
Y258750D02*
X221500D01*
Y253000D01*
X227250D01*
Y258750D01*
D02*
G37*
G36*
X130750Y235500D02*
X125000D01*
Y229750D01*
X130750D01*
Y235500D01*
D02*
G37*
G36*
X122500D02*
X116750D01*
Y229750D01*
X122500D01*
Y235500D01*
D02*
G37*
G36*
X130750Y227250D02*
X125000D01*
Y221500D01*
X130750D01*
Y227250D01*
D02*
G37*
G36*
X122500D02*
X116750D01*
Y221500D01*
X122500D01*
Y227250D01*
D02*
G37*
G36*
X217500Y159500D02*
X211750D01*
Y153750D01*
X217500D01*
Y159500D01*
D02*
G37*
G36*
X209250D02*
X203500D01*
Y153750D01*
X209250D01*
Y159500D01*
D02*
G37*
G36*
X287250Y164750D02*
X275250D01*
Y152314D01*
X273250D01*
Y164750D01*
X261250D01*
Y151750D01*
X263936D01*
Y150750D01*
X264189Y149482D01*
X264907Y148407D01*
X266657Y146657D01*
X267732Y145939D01*
X269000Y145686D01*
X299243D01*
X300168Y144761D01*
X302005Y144000D01*
X303995D01*
X305832Y144761D01*
X307239Y146168D01*
X308000Y148005D01*
Y149995D01*
X307239Y151832D01*
X306258Y152813D01*
X305970Y153625D01*
X306258Y154437D01*
X307239Y155418D01*
X308000Y157255D01*
Y159245D01*
X307239Y161082D01*
X305832Y162489D01*
X303995Y163250D01*
X302005D01*
X300168Y162489D01*
X299243Y161564D01*
X287250D01*
Y164750D01*
D02*
G37*
G36*
X217500Y151250D02*
X211750D01*
Y145500D01*
X217500D01*
Y151250D01*
D02*
G37*
G36*
X209250D02*
X203500D01*
Y145500D01*
X209250D01*
Y151250D01*
D02*
G37*
G36*
X262000Y88000D02*
X254250D01*
Y69250D01*
X262000D01*
Y88000D01*
D02*
G37*
G36*
X251750D02*
X244000D01*
Y69250D01*
X251750D01*
Y88000D01*
D02*
G37*
G36*
X262000Y66750D02*
X254250D01*
Y48000D01*
X262000D01*
Y66750D01*
D02*
G37*
G36*
X251750D02*
X244000D01*
Y48000D01*
X251750D01*
Y66750D01*
D02*
G37*
G36*
X297250Y308250D02*
X291500D01*
Y302500D01*
X297250D01*
Y308250D01*
D02*
G37*
G36*
X312250Y267000D02*
X306500D01*
Y261250D01*
X312250D01*
Y267000D01*
D02*
G37*
G36*
X320500Y258750D02*
X314750D01*
Y253000D01*
X320500D01*
Y258750D01*
D02*
G37*
G36*
X312250D02*
X306500D01*
Y253000D01*
X312250D01*
Y258750D01*
D02*
G37*
G36*
X479450Y118150D02*
X479186D01*
X476261Y117366D01*
X473639Y115852D01*
X471498Y113711D01*
X469984Y111089D01*
X469200Y108164D01*
Y107900D01*
X479450D01*
Y118150D01*
D02*
G37*
G36*
X405948Y117650D02*
X403052D01*
X400254Y116900D01*
X397746Y115452D01*
X395698Y113404D01*
X394250Y110896D01*
X393500Y108098D01*
Y105202D01*
X394250Y102404D01*
X395698Y99896D01*
X397746Y97848D01*
X400254Y96400D01*
X403052Y95650D01*
X405948D01*
X408746Y96400D01*
X411254Y97848D01*
X413302Y99896D01*
X414750Y102404D01*
X415500Y105202D01*
Y108098D01*
X414750Y110896D01*
X413302Y113404D01*
X411254Y115452D01*
X408746Y116900D01*
X405948Y117650D01*
D02*
G37*
G36*
X380548D02*
X377652D01*
X374854Y116900D01*
X372346Y115452D01*
X370298Y113404D01*
X368850Y110896D01*
X368100Y108098D01*
Y105202D01*
X368850Y102404D01*
X370298Y99896D01*
X372346Y97848D01*
X374854Y96400D01*
X377652Y95650D01*
X380548D01*
X383346Y96400D01*
X385854Y97848D01*
X387902Y99896D01*
X389350Y102404D01*
X390100Y105202D01*
Y108098D01*
X389350Y110896D01*
X387902Y113404D01*
X385854Y115452D01*
X383346Y116900D01*
X380548Y117650D01*
D02*
G37*
G36*
X479450Y105400D02*
X469200D01*
Y105136D01*
X469984Y102211D01*
X471498Y99589D01*
X473639Y97448D01*
X476261Y95934D01*
X479186Y95150D01*
X479450D01*
Y105400D01*
D02*
G37*
G36*
X477250Y93000D02*
X471500D01*
Y87250D01*
X477250D01*
Y93000D01*
D02*
G37*
G36*
X469000D02*
X463250D01*
Y87250D01*
X469000D01*
Y93000D01*
D02*
G37*
G36*
X422000Y92500D02*
X416250D01*
Y86750D01*
X422000D01*
Y92500D01*
D02*
G37*
G36*
X413750D02*
X408000D01*
Y86750D01*
X413750D01*
Y92500D01*
D02*
G37*
G36*
X456748Y117650D02*
X453852D01*
X451054Y116900D01*
X448546Y115452D01*
X446498Y113404D01*
X445050Y110896D01*
X444300Y108098D01*
Y105202D01*
X445050Y102404D01*
X446498Y99896D01*
X448546Y97848D01*
X451054Y96400D01*
X451986Y96150D01*
Y92500D01*
X448750D01*
Y79500D01*
X461750D01*
Y92500D01*
X458614D01*
Y96150D01*
X459546Y96400D01*
X462054Y97848D01*
X464102Y99896D01*
X465550Y102404D01*
X466300Y105202D01*
Y108098D01*
X465550Y110896D01*
X464102Y113404D01*
X462054Y115452D01*
X459546Y116900D01*
X456748Y117650D01*
D02*
G37*
G36*
X477250Y84750D02*
X471500D01*
Y79000D01*
X477250D01*
Y84750D01*
D02*
G37*
G36*
X469000D02*
X463250D01*
Y79000D01*
X469000D01*
Y84750D01*
D02*
G37*
G36*
X422000Y84250D02*
X416250D01*
Y78500D01*
X422000D01*
Y84250D01*
D02*
G37*
G36*
X413750D02*
X408000D01*
Y78500D01*
X413750D01*
Y84250D01*
D02*
G37*
G36*
X421423Y33260D02*
X421290D01*
Y24010D01*
X430540D01*
Y24143D01*
X429825Y26813D01*
X428442Y29207D01*
X426488Y31163D01*
X424093Y32545D01*
X421423Y33260D01*
D02*
G37*
G36*
X418790D02*
X418658D01*
X415988Y32545D01*
X413593Y31163D01*
X411638Y29207D01*
X410256Y26813D01*
X409540Y24143D01*
Y24010D01*
X418790D01*
Y33260D01*
D02*
G37*
G36*
X446822Y33260D02*
X446690D01*
Y24010D01*
X455940D01*
Y24142D01*
X455224Y26812D01*
X453842Y29207D01*
X451887Y31162D01*
X449492Y32544D01*
X446822Y33260D01*
D02*
G37*
G36*
X444190D02*
X444057D01*
X441387Y32544D01*
X438993Y31162D01*
X437038Y29207D01*
X435655Y26812D01*
X434940Y24142D01*
Y24010D01*
X444190D01*
Y33260D01*
D02*
G37*
%LPD*%
D12*
X179500Y360500D02*
Y367000D01*
X178500Y354000D02*
Y359500D01*
X179500Y360500D01*
X178500Y333500D02*
Y336000D01*
X178500Y336000D01*
Y340000D01*
X178500Y333500D02*
X179500Y332500D01*
Y327000D02*
Y332500D01*
X165635Y355183D02*
X172318Y348500D01*
X165635Y355183D02*
Y366196D01*
X155589Y372000D02*
X162635Y364953D01*
Y353940D02*
X171075Y345500D01*
X156831Y375000D02*
X165635Y366196D01*
X162635Y353940D02*
Y364953D01*
X147511Y372000D02*
X155589D01*
X146269Y375000D02*
X156831D01*
X140050Y368781D02*
X146269Y375000D01*
X143050Y367539D02*
X147511Y372000D01*
X143050Y366296D02*
Y367539D01*
X143929Y365417D02*
X144730D01*
X147897Y362250D01*
X151550D01*
X143050Y366296D02*
X143929Y365417D01*
X139171D02*
X140050Y366296D01*
Y368781D01*
X138370Y365417D02*
X139171D01*
X135203Y362250D02*
X138370Y365417D01*
X253250Y346500D02*
X254250Y345500D01*
X228368Y346500D02*
X253250D01*
X227368Y345500D02*
X228368Y346500D01*
X200129Y345500D02*
X227368D01*
X254250Y345500D02*
X257000D01*
X196000Y340000D02*
X199250Y343250D01*
Y344621D01*
X200129Y345500D01*
X195500Y340000D02*
X196000D01*
X199250Y349379D02*
X200129Y348500D01*
X227125Y349500D02*
X253250D01*
X226125Y348500D02*
X227125Y349500D01*
X200129Y348500D02*
X226125D01*
X253250Y349500D02*
X254250Y350500D01*
X257000D01*
X195500Y354000D02*
X196000D01*
X199250Y349379D02*
Y350750D01*
X196000Y354000D02*
X199250Y350750D01*
X171075Y345500D02*
X174000D01*
X174879Y343250D02*
X178129Y340000D01*
X178500D01*
X178129Y354000D02*
X178500D01*
X174879Y343250D02*
Y344621D01*
X174879Y349379D02*
Y350750D01*
X178129Y354000D01*
X174000Y345500D02*
X174879Y344621D01*
X172318Y348500D02*
X174000D01*
X174879Y349379D01*
X131550Y362250D02*
X135203D01*
D14*
X471250Y346000D02*
D03*
X456250D02*
D03*
X298500Y260000D02*
D03*
X313500D02*
D03*
X243500D02*
D03*
X228500D02*
D03*
X283500Y309500D02*
D03*
X298500D02*
D03*
X260500Y402000D02*
D03*
X275500D02*
D03*
X225500Y152500D02*
D03*
X210500D02*
D03*
X455250Y86000D02*
D03*
X470250D02*
D03*
X481000Y205000D02*
D03*
X466000D02*
D03*
X430000Y85500D02*
D03*
X415000D02*
D03*
D15*
X241000Y313500D02*
D03*
Y298500D02*
D03*
X240250Y372750D02*
D03*
Y387750D02*
D03*
X123750Y228500D02*
D03*
Y213500D02*
D03*
X424000Y388500D02*
D03*
Y373500D02*
D03*
X363500Y355000D02*
D03*
Y340000D02*
D03*
X484500Y389500D02*
D03*
Y374500D02*
D03*
X670000Y165500D02*
D03*
Y180500D02*
D03*
D16*
X184250Y68000D02*
D03*
Y121000D02*
D03*
X253000D02*
D03*
Y68000D02*
D03*
D17*
X417500Y330800D02*
D03*
Y305400D02*
D03*
X471500Y292700D02*
D03*
X417500Y318100D02*
D03*
X471500Y305400D02*
D03*
Y318100D02*
D03*
Y330800D02*
D03*
X417500Y292700D02*
D03*
D18*
X284500Y328000D02*
D03*
X289500D02*
D03*
X294500D02*
D03*
Y378000D02*
D03*
X289500D02*
D03*
X284500D02*
D03*
X279500D02*
D03*
X274500D02*
D03*
X269500D02*
D03*
Y328000D02*
D03*
X264500D02*
D03*
Y378000D02*
D03*
X299500D02*
D03*
X279500Y328000D02*
D03*
X299500D02*
D03*
X274500D02*
D03*
D19*
X307000Y350500D02*
D03*
Y360500D02*
D03*
X257000Y370500D02*
D03*
Y365500D02*
D03*
Y360500D02*
D03*
X307000Y365500D02*
D03*
Y370500D02*
D03*
X257000Y340500D02*
D03*
X307000D02*
D03*
Y345500D02*
D03*
X257000D02*
D03*
Y350500D02*
D03*
X307000Y355500D02*
D03*
X257000Y335500D02*
D03*
X307000D02*
D03*
X257000Y355500D02*
D03*
D20*
X282001Y352994D02*
D03*
D21*
X38500Y190500D02*
D03*
D22*
X96500D02*
D03*
Y167500D02*
D03*
Y213500D02*
D03*
D23*
X466750Y371500D02*
D03*
Y390500D02*
D03*
X439750Y371500D02*
D03*
Y390500D02*
D03*
Y381000D02*
D03*
D24*
X88750Y249000D02*
D03*
X46750D02*
D03*
D25*
X511000Y299750D02*
D03*
Y317750D02*
D03*
X158000Y188000D02*
D03*
Y170000D02*
D03*
D26*
X364000Y294000D02*
D03*
X346000D02*
D03*
X345000Y447000D02*
D03*
X363000D02*
D03*
D27*
X193750Y314000D02*
D03*
X180250D02*
D03*
D28*
X497000Y301250D02*
D03*
Y318250D02*
D03*
X349500Y356000D02*
D03*
Y339000D02*
D03*
X143000Y187500D02*
D03*
Y170500D02*
D03*
X377500Y356000D02*
D03*
Y339000D02*
D03*
X267250Y158250D02*
D03*
Y175250D02*
D03*
X281250Y158250D02*
D03*
Y175250D02*
D03*
X676000Y245500D02*
D03*
Y262500D02*
D03*
X656000Y164500D02*
D03*
Y181500D02*
D03*
D29*
X276500Y429000D02*
D03*
X259500D02*
D03*
X178500Y354000D02*
D03*
X195500D02*
D03*
X178500Y340000D02*
D03*
X195500D02*
D03*
X437500Y266000D02*
D03*
X454500D02*
D03*
X437500Y279000D02*
D03*
X454500D02*
D03*
X259500Y416000D02*
D03*
X276500D02*
D03*
X277500Y278000D02*
D03*
X260500D02*
D03*
X362500Y280000D02*
D03*
X345500D02*
D03*
X344500Y433000D02*
D03*
X361500D02*
D03*
X426500Y205000D02*
D03*
X409500D02*
D03*
D30*
X194500Y367000D02*
D03*
X179500D02*
D03*
X194500Y327000D02*
D03*
X179500D02*
D03*
D31*
X16250Y499500D02*
D03*
X107250D02*
D03*
X16250Y454500D02*
D03*
X107250D02*
D03*
D32*
X180850Y22500D02*
D03*
X222650D02*
D03*
D33*
X279250Y443000D02*
D03*
X256750D02*
D03*
X640750Y207000D02*
D03*
X663250D02*
D03*
D34*
X378160Y395000D02*
D03*
X397840Y385295D02*
D03*
Y404705D02*
D03*
D35*
X312500Y225750D02*
D03*
X227500D02*
D03*
D36*
X429750Y226750D02*
D03*
X405750D02*
D03*
X417750D02*
D03*
D37*
X47500Y22000D02*
D03*
X633000Y468250D02*
D03*
D68*
X159600Y447300D02*
D03*
Y472700D02*
D03*
X185000Y447300D02*
D03*
Y472700D02*
D03*
X210400Y447300D02*
D03*
X654200Y280400D02*
D03*
X628800Y255000D02*
D03*
X654200D02*
D03*
X628800Y229600D02*
D03*
X654200D02*
D03*
X539240Y22760D02*
D03*
X564640D02*
D03*
X590040D02*
D03*
X615440D02*
D03*
X640840D02*
D03*
X581850Y511750D02*
D03*
X556450D02*
D03*
X531050D02*
D03*
X505650D02*
D03*
X480250Y511750D02*
D03*
X454850D02*
D03*
X607250Y511750D02*
D03*
X343840Y22760D02*
D03*
X369240D02*
D03*
X318440D02*
D03*
X394640D02*
D03*
X420040D02*
D03*
X445440Y22760D02*
D03*
X470840D02*
D03*
X237499Y511750D02*
D03*
X288299Y511749D02*
D03*
X389899D02*
D03*
X364499D02*
D03*
X339099D02*
D03*
X313699D02*
D03*
X212101Y511751D02*
D03*
X186701D02*
D03*
X262899Y511750D02*
D03*
D72*
X295536Y200000D02*
G03*
X293768Y199268I0J-2500D01*
G01*
X332715Y200000D02*
G03*
X334482Y200732I0J2500D01*
G01*
X347250Y256714D02*
G03*
X346750Y258214I-2500J0D01*
G01*
X309250Y296775D02*
G03*
X309974Y295027I2500J11D01*
G01*
X309250Y310604D02*
G03*
X308518Y312371I-2500J0D01*
G01*
X633100Y31535D02*
G03*
X633829Y29771I2500J0D01*
G01*
X398500Y449715D02*
G03*
X397769Y451481I-2500J0D01*
G01*
X393500Y344204D02*
G03*
X393000Y345704I-2500J0D01*
G01*
X392774Y300470D02*
G03*
X393500Y302232I-1774J1761D01*
G01*
X385427Y293123D02*
G03*
X384250Y290289I2823J-2833D01*
G01*
X656000Y190714D02*
G03*
X655268Y192482I-2500J0D01*
G01*
X357482Y491768D02*
G03*
X355714Y492500I-1768J-1768D01*
G01*
X383472Y355268D02*
G03*
X381704Y356000I-1768J-1768D01*
G01*
X352232Y255232D02*
G03*
X351500Y253465I1768J-1768D01*
G01*
X341950Y25686D02*
G03*
X342677Y23924I2500J0D01*
G01*
X335965Y195000D02*
G03*
X337732Y195732I0J2500D01*
G01*
X322285Y195000D02*
G03*
X320518Y194268I0J-2500D01*
G01*
X317201Y190951D02*
G03*
X316476Y189190I1774J-1761D01*
G01*
X341950Y65015D02*
G03*
X341224Y66776I-2500J0D01*
G01*
X281482Y460518D02*
G03*
X279714Y461250I-1768J-1768D01*
G01*
X247535D02*
G03*
X245768Y460518I0J-2500D01*
G01*
X284232Y465518D02*
G03*
X282464Y466250I-1768J-1768D01*
G01*
X246879D02*
G03*
X245111Y465518I0J-2500D01*
G01*
X217465Y433250D02*
G03*
X219232Y433982I0J2500D01*
G01*
X183535Y427250D02*
G03*
X185035Y426750I1500J2000D01*
G01*
X217657D02*
G03*
X219425Y427482I0J2500D01*
G01*
X183275Y427475D02*
G03*
X183535Y427250I1760J1775D01*
G01*
X171750Y440036D02*
G03*
X172476Y438274I2500J0D01*
G01*
X172482Y475385D02*
G03*
X171750Y473617I1768J-1768D01*
G01*
X252285Y452000D02*
G03*
X250518Y451268I0J-2500D01*
G01*
X218715Y420500D02*
G03*
X220476Y421226I0J2500D01*
G01*
X162774Y421226D02*
G03*
X163035Y421000I1761J1774D01*
G01*
D02*
G03*
X164535Y420500I1500J2000D01*
G01*
X313250Y436465D02*
G03*
X313018Y436732I-2000J-1500D01*
G01*
X313750Y434964D02*
G03*
X313250Y436465I-2500J0D01*
G01*
X299000Y435465D02*
G03*
X298768Y435732I-2000J-1500D01*
G01*
X278732Y455768D02*
G03*
X276964Y456500I-1768J-1768D01*
G01*
X299500Y433965D02*
G03*
X299000Y435465I-2500J0D01*
G01*
X307000Y433966D02*
G03*
X306268Y435732I-2500J-1D01*
G01*
X261535Y328000D02*
G03*
X259774Y327274I0J-2500D01*
G01*
X254476Y321976D02*
G03*
X253750Y320215I1774J-1761D01*
G01*
X283500Y317214D02*
G03*
X282813Y318935I-2500J0D01*
G01*
X279500Y323425D02*
G03*
X280187Y321704I2500J0D01*
G01*
X314500Y299806D02*
G03*
X315225Y298057I2500J11D01*
G01*
X324306Y288976D02*
G03*
X326068Y288250I1762J1774D01*
G01*
X343250Y250464D02*
G03*
X342518Y252232I-2500J0D01*
G01*
X332058Y205000D02*
G03*
X333819Y205726I0J2500D01*
G01*
X238286Y340500D02*
G03*
X236524Y339774I0J-2500D01*
G01*
X153503Y257788D02*
G03*
X155264Y258514I0J2500D01*
G01*
X253286Y278000D02*
G03*
X251524Y277274I0J-2500D01*
G01*
X249482Y275232D02*
G03*
X248750Y273465I1768J-1768D01*
G01*
X248024Y264524D02*
G03*
X248750Y266285I-1774J1761D01*
G01*
X492768Y44688D02*
G03*
X493500Y46456I-1768J1768D01*
G01*
X508000Y101163D02*
G03*
X507839Y102047I-2500J0D01*
G01*
X411335Y163250D02*
G03*
X409568Y162518I0J-2500D01*
G01*
X605965Y163250D02*
G03*
X607732Y163982I0J2500D01*
G01*
X608432Y487532D02*
G03*
X607700Y485765I1768J-1768D01*
G01*
X594774Y214379D02*
G03*
X595500Y216140I-1774J1761D01*
G01*
X583026Y202630D02*
G03*
X582300Y200869I1774J-1761D01*
G01*
X583274Y227774D02*
G03*
X584000Y229536I-1774J1761D01*
G01*
X557626Y202126D02*
G03*
X556900Y200364I1774J-1761D01*
G01*
X572024Y239024D02*
G03*
X572750Y240786I-1774J1761D01*
G01*
X532226Y199226D02*
G03*
X531500Y197465I1774J-1761D01*
G01*
X560274Y249274D02*
G03*
X561000Y251035I-1774J1761D01*
G01*
X506826Y195826D02*
G03*
X506100Y194065I1774J-1761D01*
G01*
X549774Y254774D02*
G03*
X550500Y256535I-1774J1761D01*
G01*
X493726Y198726D02*
G03*
X493000Y196964I1774J-1761D01*
G01*
X584000Y508564D02*
G03*
X583268Y510331I-2500J0D01*
G01*
X561000Y480764D02*
G03*
X560268Y482531I-2500J0D01*
G01*
X550500Y465864D02*
G03*
X549768Y467631I-2500J0D01*
G01*
X572750Y494414D02*
G03*
X572018Y496181I-2500J0D01*
G01*
X596232Y498482D02*
G03*
X595500Y496715I1768J-1768D01*
G01*
X161153Y470112D02*
G03*
X160427Y471873I-2500J0D01*
G01*
X161153Y469883D02*
G03*
X161878Y468122I2500J0D01*
G01*
X155236Y472700D02*
G03*
X153474Y471974I0J-2500D01*
G01*
X145976Y464476D02*
G03*
X145250Y462715I1774J-1761D01*
G01*
Y439774D02*
G03*
X145975Y438026I2500J11D01*
G01*
X393000Y345704D02*
G03*
X392768Y345972I-2000J-1500D01*
G01*
X356232Y253575D02*
G03*
X355500Y251808I1768J-1768D01*
G01*
X341474Y193312D02*
G03*
X340750Y191564I1776J-1759D01*
G01*
X369240Y59724D02*
G03*
X368515Y61485I-2500J0D01*
G01*
X341250Y88785D02*
G03*
X341475Y88525I2000J1500D01*
G01*
X340750Y90286D02*
G03*
X341250Y88785I2500J0D01*
G01*
X346750Y258214D02*
G03*
X346524Y258476I-2000J-1500D01*
G01*
X465305Y248576D02*
G03*
X467052Y249302I-14J2500D01*
G01*
X470774Y253024D02*
G03*
X471500Y254785I-1774J1761D01*
G01*
X277500Y287964D02*
G03*
X276774Y289726I-2500J0D01*
G01*
X383518Y286518D02*
G03*
X384250Y288286I-1768J1768D01*
G01*
X342518Y214425D02*
G03*
X343250Y216192I-1768J1768D01*
G01*
X606524Y508774D02*
G03*
X607250Y510535I-1774J1761D01*
G01*
X346518Y212768D02*
G03*
X347250Y214536I-1768J1768D01*
G01*
X618724Y174974D02*
G03*
X619450Y176735I-1774J1761D01*
G01*
X397840Y377696D02*
G03*
X398566Y375934I2500J0D01*
G01*
X417500Y355965D02*
G03*
X416774Y357726I-2500J0D01*
G01*
X249478Y456500D02*
G03*
X247710Y455768I0J-2500D01*
G01*
X240250Y366035D02*
G03*
X240976Y364274I2500J0D01*
G01*
X244024Y361226D02*
G03*
X245786Y360500I1761J1774D01*
G01*
X198900Y314000D02*
G03*
X200661Y314726I0J2500D01*
G01*
X203024Y317089D02*
G03*
X203750Y318850I-1774J1761D01*
G01*
X354772Y206610D02*
G03*
X355000Y206874I-1772J1764D01*
G01*
D02*
G03*
X355500Y208374I-2000J1500D01*
G01*
X392725Y169225D02*
G03*
X392985Y169000I1760J1775D01*
G01*
D02*
G03*
X394486Y168500I1500J2000D01*
G01*
X484964D02*
G03*
X486732Y169232I0J2500D01*
G01*
X433000Y523965D02*
G03*
X432274Y525726I-2500J0D01*
G01*
X430726Y527274D02*
G03*
X428965Y528000I-1761J-1774D01*
G01*
X305585D02*
G03*
X303824Y527274I0J-2500D01*
G01*
X620270Y243235D02*
G03*
X618509Y242509I0J-2500D01*
G01*
X614226Y238226D02*
G03*
X613500Y236465I1774J-1761D01*
G01*
Y206162D02*
G03*
X614000Y204662I2500J0D01*
G01*
D02*
G03*
X614225Y204401I2000J1500D01*
G01*
X492268Y174768D02*
G03*
X493000Y176535I-1768J1768D01*
G01*
X281250Y186750D02*
X293768Y199268D01*
X334482Y200732D02*
X346518Y212768D01*
X295536Y200000D02*
X332715D01*
X281250Y175250D02*
Y186750D01*
X287000Y205000D02*
X332058D01*
X267250Y185250D02*
X287000Y205000D01*
X267250Y175250D02*
Y185250D01*
X347250Y214536D02*
Y256714D01*
X309250Y296775D02*
Y310604D01*
X269000Y149000D02*
X303000D01*
X267250Y150750D02*
X269000Y149000D01*
X267250Y150750D02*
Y158250D01*
X281250D02*
X303000D01*
X16250Y454500D02*
Y465500D01*
X107250Y454500D02*
Y465500D01*
X19500Y499500D02*
X107250D01*
Y490420D02*
X110920Y486750D01*
X107250Y490420D02*
Y499500D01*
X180124Y23226D02*
X180850Y22500D01*
X180124Y23226D02*
Y35626D01*
X139000Y76750D02*
Y101750D01*
Y76750D02*
X180124Y35626D01*
X633829Y29771D02*
X640840Y22760D01*
X633100Y31535D02*
Y106650D01*
X199000Y68000D02*
X199250Y68250D01*
X184250Y68000D02*
X199000D01*
X319750Y484500D02*
X344500D01*
X344500Y440750D02*
X345000Y441250D01*
X344500Y433000D02*
Y440750D01*
X345000Y441250D02*
Y447000D01*
X173500Y492500D02*
X355714Y492500D01*
X110920Y486750D02*
X167750D01*
X173500Y492500D01*
X398500Y418750D02*
Y449715D01*
X397768Y451482D02*
X397769Y451481D01*
X393500Y302232D02*
Y344204D01*
X385427Y293123D02*
X392774Y300470D01*
X385427Y293123D02*
X385427Y293123D01*
X384250Y288286D02*
Y290289D01*
X656000Y181500D02*
Y190714D01*
X380250Y356000D02*
X381704D01*
X351500Y209500D02*
Y253465D01*
X342677Y23924D02*
X343840Y22760D01*
X322285Y195000D02*
X335965D01*
X317201Y190951D02*
X320518Y194268D01*
X317201Y190951D02*
X317201Y190951D01*
X341950Y25686D02*
Y65015D01*
X316476Y91524D02*
Y189190D01*
X357482Y491768D02*
X397768Y451482D01*
X219232Y433982D02*
X245768Y460518D01*
X281482Y460518D02*
X306268Y435732D01*
X247535Y461250D02*
X279714D01*
X284232Y465518D02*
X313018Y436732D01*
X241543Y461950D02*
X245111Y465518D01*
X246879Y466250D02*
X282464D01*
X187500Y433250D02*
X217465D01*
X185000Y435750D02*
X187500Y433250D01*
X185000Y435750D02*
Y447300D01*
X183268Y427482D02*
X183275Y427475D01*
X219425Y427482D02*
X247710Y455768D01*
X172476Y438274D02*
X183268Y427482D01*
X185035Y426750D02*
X217657D01*
X171750Y440036D02*
Y473617D01*
X172482Y475385D02*
X180547Y483450D01*
X252285Y452000D02*
X263000D01*
X272000Y443000D01*
X220476Y421226D02*
X250518Y451268D01*
X164535Y420500D02*
X218715D01*
X162767Y421232D02*
X162774Y421226D01*
X145975Y438026D02*
X162767Y421232D01*
X313750Y368111D02*
Y434964D01*
X299500Y378000D02*
Y433965D01*
X278732Y455768D02*
X298768Y435732D01*
X249478Y456500D02*
X276964D01*
X307000Y370500D02*
Y433966D01*
X241000Y313500D02*
Y322250D01*
X254250Y335500D01*
X235375Y313500D02*
X241000D01*
X254476Y321976D02*
X259774Y327274D01*
X253750Y291500D02*
Y320215D01*
X261535Y328000D02*
X264500D01*
X283500Y309500D02*
Y317214D01*
X280187Y321704D02*
X282813Y318935D01*
X279500Y323425D02*
Y328000D01*
X326068Y288250D02*
X326250D01*
X315225Y298057D02*
X324306Y288976D01*
X314500Y299806D02*
Y312046D01*
X343250Y216192D02*
Y250464D01*
X333819Y205726D02*
X342518Y214425D01*
X333819Y205726D02*
X333819Y205726D01*
X114038Y257788D02*
X153503D01*
X155264Y258514D02*
X236524Y339774D01*
X238286Y340500D02*
X257000D01*
X227500Y225750D02*
Y244000D01*
X253286Y278000D02*
X260500D01*
X249482Y275232D02*
X251524Y277274D01*
X248750Y266285D02*
Y273465D01*
X243500Y260000D02*
X248024Y264524D01*
X227500Y244000D02*
X243500Y260000D01*
X135000Y228500D02*
X135000Y228500D01*
X123750Y228500D02*
X135000D01*
X493500Y46456D02*
Y156750D01*
X454500Y266000D02*
X455000D01*
X461652Y259348D01*
Y257848D02*
X462500Y257000D01*
X461652Y257848D02*
Y259348D01*
X470840Y22760D02*
X492768Y44688D01*
X460090Y12010D02*
X470840Y22760D01*
X237760Y22500D02*
X248250Y12010D01*
X460090D01*
X222650Y22500D02*
X237760D01*
X484500Y364000D02*
Y374500D01*
X439750Y381000D02*
X450250D01*
X511000Y317750D02*
Y328250D01*
X445500Y346000D02*
X456000D01*
X454500Y279000D02*
X465000D01*
X425000Y292700D02*
X425200Y292500D01*
X430500D01*
X424000Y363000D02*
Y373500D01*
X386000Y328500D02*
X386500Y328000D01*
X349500Y328500D02*
X386000D01*
X349500D02*
Y339000D01*
X349750Y302750D02*
Y305000D01*
X417500Y292700D02*
X425000D01*
X349500Y305250D02*
X349750Y305000D01*
X298500Y299000D02*
Y309500D01*
X670000Y180500D02*
Y191000D01*
X466000Y205000D02*
Y215500D01*
X480700Y88300D02*
X483214Y85786D01*
Y83715D02*
Y85786D01*
X480700Y88300D02*
Y106650D01*
X475861Y76361D02*
X483214Y83715D01*
X471111Y76361D02*
X475861D01*
X470250Y75500D02*
Y86000D01*
Y75500D02*
X471111Y76361D01*
X417750Y242000D02*
X417750Y242000D01*
Y226750D02*
Y242000D01*
X313500Y260000D02*
X324000D01*
X313500D02*
X316750Y259250D01*
X415000Y75000D02*
Y85500D01*
X275500Y402000D02*
X286000D01*
X272750D02*
X275500D01*
X282003Y338989D02*
X296007D01*
X282002Y338989D02*
X282003Y338989D01*
X274500Y322468D02*
Y328000D01*
X240250Y387750D02*
Y398250D01*
X271611Y319579D02*
X274500Y322468D01*
X271611Y313361D02*
Y319579D01*
X270750Y312500D02*
X271611Y313361D01*
X241000Y288000D02*
Y298500D01*
X253000Y68000D02*
X264750D01*
X218000Y260000D02*
X228500D01*
X200000Y152500D02*
X210500D01*
X180250Y303500D02*
Y314000D01*
X96500Y176500D02*
X96500Y176500D01*
X96500Y167500D02*
Y176500D01*
X158000Y170000D02*
X168500D01*
X508000Y29510D02*
Y101163D01*
Y29510D02*
X513840Y22760D01*
X506100Y106650D02*
X507839Y102047D01*
X353700Y106650D02*
X409568Y162518D01*
X411335Y163250D02*
X605965D01*
X607732Y163982D02*
X618724Y174974D01*
X608432Y487532D02*
X632650Y511750D01*
X607700Y182850D02*
Y485765D01*
X582300Y182850D02*
Y200869D01*
X595500Y216140D02*
Y496715D01*
X583026Y202630D02*
X594774Y214379D01*
X556900Y182850D02*
Y200364D01*
X584000Y229536D02*
Y508564D01*
X557626Y202126D02*
X583274Y227774D01*
X531500Y182850D02*
Y197465D01*
X572750Y240786D02*
Y494414D01*
X532226Y199226D02*
X572024Y239024D01*
X561000Y251035D02*
Y480764D01*
X506826Y195826D02*
X560274Y249274D01*
X506100Y182850D02*
Y194065D01*
X493000Y176535D02*
Y196964D01*
X550500Y256535D02*
Y465864D01*
X493726Y198726D02*
X549774Y254774D01*
X581850Y511750D02*
X583268Y510331D01*
X531050Y511750D02*
X560268Y482531D01*
X505650Y511750D02*
X549768Y467631D01*
X556450Y511750D02*
X572018Y496181D01*
X596232Y498482D02*
X606524Y508774D01*
X88750Y249000D02*
X105250D01*
X114038Y257788D01*
X353500Y356000D02*
X353500Y356000D01*
X356000D01*
X349500Y356000D02*
X353500D01*
X356000Y356000D02*
X357000Y355000D01*
X363500D01*
X276500Y434750D02*
X279250Y437500D01*
X276500Y429000D02*
Y434750D01*
X161153Y469883D02*
Y470112D01*
X155236Y472700D02*
X159600D01*
X145976Y464476D02*
X153474Y471974D01*
X145976Y464476D02*
X145976Y464476D01*
X145250Y439774D02*
Y462715D01*
X426500Y211500D02*
X429750Y214750D01*
X426500Y205000D02*
Y211500D01*
Y197900D02*
X429900Y194500D01*
X426500Y197900D02*
Y205000D01*
X676000Y236500D02*
X678250Y234250D01*
X676000Y236500D02*
Y245500D01*
X308250Y241500D02*
X312500D01*
X298500Y251250D02*
X308250Y241500D01*
X298500Y251250D02*
Y260000D01*
X312500Y225750D02*
Y241500D01*
X259500Y409500D02*
Y416000D01*
Y409500D02*
X260500Y408500D01*
Y402000D02*
Y408500D01*
X640750Y207000D02*
Y215882D01*
X640018Y216614D02*
X640750Y215882D01*
X415000Y311250D02*
X417500Y313750D01*
Y318100D01*
X409211Y311250D02*
X415000D01*
X272000Y443000D02*
X279250D01*
X362750Y284250D02*
Y287250D01*
X362500Y284000D02*
X362750Y284250D01*
X362500Y280000D02*
Y284000D01*
X362750Y287250D02*
X364000Y288500D01*
Y294000D01*
X224375Y302500D02*
X235375Y313500D01*
X640000Y169000D02*
X644500Y164500D01*
X656000D01*
X640000Y169000D02*
Y175950D01*
X633100Y182850D02*
X640000Y175950D01*
X503250Y301250D02*
X504750Y299750D01*
X511000D01*
X409500Y205000D02*
Y211000D01*
X405750Y214750D02*
X409500Y211000D01*
Y198000D02*
Y205000D01*
X407500Y196000D02*
X409500Y198000D01*
X404500Y196000D02*
X407500D01*
X260500Y389000D02*
X264500Y385000D01*
Y378000D02*
Y385000D01*
X640750Y200464D02*
Y207000D01*
X648750Y199000D02*
X655268Y192482D01*
X640750Y200464D02*
X642215Y199000D01*
X648750D01*
X388250Y290289D02*
X409211Y311250D01*
X388250Y285593D02*
Y290289D01*
X253750Y291500D02*
X259750Y285500D01*
Y282250D02*
Y285500D01*
X369750Y340000D02*
X370750Y339000D01*
X363500Y340000D02*
X369750D01*
X370750Y339000D02*
X377500D01*
Y356000D02*
X380250Y356000D01*
X383472Y355268D02*
X392768Y345972D01*
X363500Y340000D02*
X366750Y339000D01*
X355500Y208374D02*
Y251808D01*
X341474Y193312D02*
X341482Y193321D01*
X341475Y88525D02*
X341482Y88518D01*
X369240Y22760D02*
Y59724D01*
X340750Y191564D02*
Y191564D01*
Y90286D02*
Y191564D01*
X307000Y319546D02*
Y335500D01*
Y319546D02*
X314500Y312046D01*
X309974Y295027D02*
X346524Y258476D01*
X362250Y248000D02*
X465305Y248576D01*
X467052Y249302D02*
X470774Y253024D01*
X471500Y254785D02*
Y292700D01*
X259500Y307000D02*
X270232Y296268D01*
X259500Y307000D02*
Y313500D01*
X269500Y323500D01*
Y328000D01*
X270232Y296268D02*
X276774Y289726D01*
X277500Y278000D02*
Y287964D01*
X127800Y313500D02*
X151550Y337250D01*
X108750Y313500D02*
X127800D01*
X46750Y249000D02*
Y274000D01*
X46500Y274250D02*
X46750Y274000D01*
X193750Y314000D02*
X198900D01*
X656000Y164500D02*
X665250D01*
X143000Y187500D02*
X153547D01*
X355018Y289018D02*
Y297407D01*
Y289018D02*
Y289018D01*
X367111Y309500D02*
X380250D01*
X355018Y297407D02*
X367111Y309500D01*
X346000Y280000D02*
X355018Y289018D01*
X352232Y255232D02*
X383518Y286518D01*
X345500Y280000D02*
X346000D01*
X254250Y335500D02*
X257000D01*
X326125Y268625D02*
X342518Y252232D01*
X607250Y510535D02*
Y511750D01*
X299500Y321389D02*
X308518Y312371D01*
X299500Y321389D02*
X299500Y328000D01*
X619450Y176735D02*
Y199176D01*
X455250Y90500D02*
X455300Y90550D01*
Y106650D01*
X455250Y86000D02*
Y90500D01*
X455300Y106650D02*
X458100Y103850D01*
X429750Y214750D02*
Y226750D01*
X405750Y214750D02*
Y226750D01*
X429900Y182850D02*
Y194500D01*
X404500Y182850D02*
Y196000D01*
X497000Y301250D02*
X503250D01*
X485750Y318100D02*
X492850D01*
X471500D02*
X485750D01*
X476250Y305400D02*
X485750Y314900D01*
Y318100D01*
X471500Y305400D02*
X476250D01*
X437500Y270000D02*
Y279000D01*
X437500Y270000D02*
X437500Y270000D01*
X437500Y266000D02*
Y270000D01*
X431100Y305400D02*
X437500Y299000D01*
Y279000D02*
Y299000D01*
X417500Y305400D02*
X431100D01*
X417500Y330800D02*
Y355965D01*
X397840Y377696D02*
Y385295D01*
X398566Y375934D02*
X416774Y357726D01*
X341750Y298250D02*
Y333589D01*
X320419Y346250D02*
X329089D01*
X341750Y333589D01*
X319669Y345500D02*
X320419Y346250D01*
X307000Y345500D02*
X319669D01*
X341750Y298250D02*
X346000Y294000D01*
X311000Y355500D02*
X311500Y356000D01*
X307000Y355500D02*
X311000D01*
X311500Y356000D02*
X349500D01*
X282000Y274000D02*
X284500D01*
X298500Y260000D01*
X278000Y278000D02*
X282000Y274000D01*
X277500Y278000D02*
X278000D01*
X195750Y461950D02*
X241543D01*
X185000Y472700D02*
X195750Y461950D01*
X180547Y483450D02*
X190099D01*
X194099Y479450D01*
X203650D01*
X210400Y472700D01*
X159600D02*
X160427Y471873D01*
X311139Y365500D02*
X313750Y368111D01*
X307000Y365500D02*
X311139D01*
X205450Y467750D02*
X210400Y472700D01*
X205250Y467750D02*
X205450D01*
X279250Y437500D02*
Y443000D01*
X276500Y420000D02*
X276500Y420000D01*
Y429000D01*
X276500Y416000D02*
Y420000D01*
X260500Y389000D02*
Y402000D01*
X240250Y366035D02*
Y372750D01*
X240976Y364274D02*
X244024Y361226D01*
X245786Y360500D02*
X257000D01*
X200661Y314726D02*
X203024Y317089D01*
X203750Y318850D02*
Y327250D01*
X194500Y327000D02*
X203500D01*
Y367000D02*
X203750Y367250D01*
X194500Y367000D02*
X203500D01*
X311000Y340500D02*
X311500Y340000D01*
X326500D01*
X307000Y340500D02*
X311000D01*
X313750Y475750D02*
X334250D01*
X363000Y447000D01*
X381500Y362250D02*
X391500Y372250D01*
X381500Y360500D02*
Y362250D01*
X377500Y356000D02*
Y356500D01*
X381500Y360500D01*
X615440Y22760D02*
Y96359D01*
X607700Y104099D02*
X615440Y96359D01*
X607700Y104099D02*
Y106650D01*
X582300Y104099D02*
X590040Y96359D01*
X582300Y104099D02*
Y106650D01*
X590040Y22760D02*
Y96359D01*
X564640Y22760D02*
Y96359D01*
X556900Y104099D02*
X564640Y96359D01*
X556900Y104099D02*
Y106650D01*
X531500Y104099D02*
X539240Y96359D01*
X531500Y104099D02*
Y106650D01*
X539240Y22760D02*
Y96359D01*
X337732Y195732D02*
X351500Y209500D01*
X316476Y91524D02*
X316482Y91518D01*
X341224Y66776D01*
X341482Y193321D02*
X354772Y206610D01*
X341482Y88518D02*
X368515Y61485D01*
X356232Y253575D02*
X388250Y285593D01*
X392718Y169232D02*
X392725Y169225D01*
X379100Y182850D02*
X392718Y169232D01*
X394486Y168500D02*
X484964D01*
X486732Y169232D02*
X492268Y174768D01*
X433000Y493000D02*
Y523965D01*
X305585Y528000D02*
X428965D01*
X303824Y527274D02*
X303824Y527274D01*
X288299Y511749D02*
X303824Y527274D01*
X640018Y216614D02*
X656417D01*
X628800Y227832D02*
X640018Y216614D01*
X628800Y227832D02*
Y229600D01*
X661803Y222000D02*
X678250D01*
X656417Y216614D02*
X661803Y222000D01*
X678250D02*
Y234250D01*
X614226Y238226D02*
X618509Y242509D01*
X620270Y243235D02*
X642435D01*
X613500Y206162D02*
Y236465D01*
X642435Y243235D02*
X654200Y255000D01*
X614225Y204401D02*
X614232Y204394D01*
X619450Y199176D01*
X430726Y527274D02*
X432274Y525726D01*
D73*
X222920Y282920D02*
G03*
X224375Y286446I-3545J3526D01*
G01*
X268455Y119545D02*
G03*
X264929Y121000I-3526J-3545D01*
G01*
X318440Y67489D02*
G03*
X316985Y71015I-5000J0D01*
G01*
X182179Y244250D02*
G03*
X185705Y245705I0J5000D01*
G01*
X222650Y58529D02*
G03*
X221195Y62055I-5000J0D01*
G01*
X361295Y396455D02*
G03*
X364821Y395000I3526J3545D01*
G01*
X474545Y363795D02*
G03*
X476000Y367321I-3545J3526D01*
G01*
X466252Y357573D02*
G03*
X469779Y359029I0J5000D01*
G01*
X283500Y298750D02*
Y309500D01*
X491750Y404500D02*
X499750Y396500D01*
X318440Y22760D02*
Y67489D01*
X185705Y245705D02*
X222920Y282920D01*
X253000Y121000D02*
X264929D01*
X185705Y245705D02*
X185705Y245705D01*
X116250Y244250D02*
X182179D01*
X225500Y152500D02*
X246250D01*
X225500Y138000D02*
Y152500D01*
X246250D02*
X253000Y145750D01*
Y121000D02*
Y145750D01*
X151550Y409950D02*
X194500Y367000D01*
X104450Y409950D02*
X151550D01*
X104450Y409200D02*
Y409950D01*
X83250Y388000D02*
X104450Y409200D01*
X83250Y310750D02*
Y388000D01*
Y310750D02*
X104450Y289550D01*
X224375Y286446D02*
Y302500D01*
X123125Y180375D02*
X133000Y170500D01*
X123125Y180375D02*
X123125D01*
X133000Y170500D02*
X143000D01*
X112625Y180375D02*
X123125D01*
X119250Y213500D02*
X119250Y213500D01*
X96500Y213500D02*
X119250D01*
X119250Y213500D02*
X123750D01*
X128250Y213500D02*
X157500D01*
X128250Y213500D02*
X128250Y213500D01*
X123750Y213500D02*
X128250D01*
X170875Y187211D02*
Y200125D01*
X157500Y213500D02*
X170875Y200125D01*
Y187211D02*
X184250Y173836D01*
X222650Y22500D02*
Y58529D01*
X218141Y65109D02*
X221195Y62055D01*
X184250Y136000D02*
X184250Y173836D01*
X184250Y121000D02*
Y136000D01*
Y99000D02*
X218141Y65109D01*
X184250Y99000D02*
Y121000D01*
X481000Y215625D02*
Y221750D01*
Y205000D02*
Y215625D01*
X487125D02*
X534500Y263000D01*
X481000Y215625D02*
X487125D01*
X480750Y222000D02*
X481000Y221750D01*
X534500Y263000D02*
Y373535D01*
X284500Y473250D02*
X361295Y396455D01*
X364821Y395000D02*
X378160D01*
X431500Y388500D02*
X433500Y390500D01*
X439750D01*
X429900Y106650D02*
X430000Y106550D01*
Y95250D02*
Y106550D01*
X430000Y85500D02*
Y95250D01*
X430000Y95250D02*
X430000Y95250D01*
X411500Y393118D02*
Y401776D01*
X408571Y404705D02*
X411500Y401776D01*
X397840Y404705D02*
X408571D01*
X411500Y393118D02*
X416118Y388500D01*
X424000D01*
X424000Y388500D02*
X431500D01*
X469779Y359029D02*
X474545Y363795D01*
X469779Y359029D02*
X469779Y359029D01*
X440467Y357573D02*
X466252D01*
X482500Y390115D02*
X483523Y389981D01*
X482500Y390115D02*
X484500Y389500D01*
X482500Y390115D02*
X482500Y390115D01*
X476000Y390500D02*
X479827D01*
X654200Y280400D02*
X670100D01*
X676000Y274500D01*
Y262500D02*
Y274500D01*
X671050Y211300D02*
X671250Y211500D01*
X666500Y211300D02*
X671050D01*
X663250Y208050D02*
X666500Y211300D01*
X663250Y207000D02*
Y208050D01*
X64000Y190500D02*
X96500D01*
X38500D02*
X64000D01*
X96750Y224750D02*
X116250Y244250D01*
X64000Y209250D02*
X79500Y224750D01*
X96750D01*
X64000Y190500D02*
Y209250D01*
X248000Y439500D02*
X248541D01*
X252041Y443000D01*
X256750D01*
Y438700D02*
X259500Y435950D01*
X256750Y438700D02*
Y443000D01*
X259500Y429000D02*
Y435950D01*
X361500Y411250D02*
X368045Y404705D01*
X361500Y411250D02*
Y433000D01*
X368045Y404705D02*
X397840D01*
X499750Y376465D02*
Y396500D01*
Y356429D02*
Y376465D01*
X531571D02*
X534500Y373535D01*
X499750Y376465D02*
X531571D01*
X442679Y404500D02*
X491750D01*
X439750Y401571D02*
X442679Y404500D01*
X439750Y390500D02*
Y401571D01*
X489321Y346000D02*
X499750Y356429D01*
X471250Y346000D02*
X489321D01*
X430000Y81000D02*
X430000Y81000D01*
Y85500D01*
X394640Y22760D02*
X430000Y58120D01*
Y81000D01*
X268455Y119545D02*
X316985Y71015D01*
X102500Y190500D02*
X112625Y180375D01*
X96500Y190500D02*
X102500D01*
X457750Y377893D02*
Y387000D01*
X454250Y390500D02*
X457750Y387000D01*
X451357Y371500D02*
X457750Y377893D01*
X439750Y390500D02*
X454250D01*
X471250Y341500D02*
X471500Y341250D01*
Y330800D02*
Y341250D01*
X471250Y341500D02*
Y346000D01*
X439750Y371500D02*
X451357D01*
X480700Y182850D02*
X481000Y183150D01*
Y205000D01*
X269750Y473250D02*
X284500D01*
X422250Y318100D02*
X430697Y326547D01*
Y347803D01*
X417500Y318100D02*
X422250D01*
X430697Y347803D02*
X440467Y357573D01*
X476000Y367321D02*
Y390500D01*
X466750D02*
X476000D01*
D74*
X88750Y266608D02*
G03*
X85838Y273662I-10000J0D01*
G01*
X27500Y332142D02*
G03*
X28420Y331080I8000J6000D01*
G01*
X25500Y338142D02*
G03*
X27500Y332142I10000J0D01*
G01*
Y425108D02*
G03*
X25500Y419108I8000J-6000D01*
G01*
X28419Y426169D02*
G03*
X27500Y425108I7081J-7061D01*
G01*
X84392Y478000D02*
G03*
X78392Y476000I0J-10000D01*
G01*
D02*
G03*
X77331Y475081I6000J-8000D01*
G01*
X88750Y249000D02*
Y266608D01*
X25500Y338142D02*
Y419108D01*
X28420Y331080D02*
X85838Y273662D01*
X28419Y426169D02*
X77331Y475081D01*
X84392Y478000D02*
X122500D01*
X77331Y475081D02*
X77331Y475081D01*
X122500Y478000D02*
X132000Y468500D01*
D75*
X210400Y472700D02*
D03*
D76*
X628800Y280400D02*
D03*
X513840Y22760D02*
D03*
X632650Y511750D02*
D03*
X293040Y22760D02*
D03*
X415299Y511749D02*
D03*
D77*
X455300Y106650D02*
D03*
X404500D02*
D03*
X556900Y182850D02*
D03*
X531500D02*
D03*
X506100D02*
D03*
X429900D02*
D03*
X404500D02*
D03*
X379100D02*
D03*
X353700D02*
D03*
X328300D02*
D03*
X302900D02*
D03*
Y106650D02*
D03*
X328300D02*
D03*
X353700D02*
D03*
X379100D02*
D03*
X506100D02*
D03*
X531500D02*
D03*
X556900D02*
D03*
X582300D02*
D03*
X607700D02*
D03*
X633100D02*
D03*
X429900D02*
D03*
X480700Y182850D02*
D03*
X582300D02*
D03*
X607700D02*
D03*
X455300D02*
D03*
X480700Y106650D02*
D03*
D78*
X633100Y182850D02*
D03*
D79*
X139000Y101750D02*
D03*
X79000D02*
D03*
D80*
X110500Y55750D02*
D03*
D81*
X151550Y337250D02*
D03*
Y362250D02*
D03*
X131550Y362250D02*
D03*
Y337250D02*
D03*
D82*
X104450Y409950D02*
D03*
Y289550D02*
D03*
D83*
X303000Y149000D02*
D03*
Y158250D02*
D03*
X267995Y352994D02*
D03*
X267996Y338988D02*
D03*
X282002Y338989D02*
D03*
X296007Y338989D02*
D03*
X282001Y352994D02*
D03*
X267994Y366999D02*
D03*
X282000Y367000D02*
D03*
X296007Y352995D02*
D03*
X296006Y367001D02*
D03*
X50000Y525000D02*
D03*
X16250Y467500D02*
D03*
X107250D02*
D03*
X199250Y68250D02*
D03*
X350000Y70000D02*
D03*
X215000Y335000D02*
D03*
X275000Y100000D02*
D03*
X230000Y470000D02*
D03*
X110000Y265000D02*
D03*
X240000Y425000D02*
D03*
X615000Y355000D02*
D03*
Y300000D02*
D03*
X525000Y365000D02*
D03*
X450000Y315000D02*
D03*
X440000Y220000D02*
D03*
X395000D02*
D03*
X520000Y200000D02*
D03*
X545000D02*
D03*
X595000D02*
D03*
X570000D02*
D03*
X665000Y140000D02*
D03*
X630000Y210000D02*
D03*
X620000Y155000D02*
D03*
X400000Y135000D02*
D03*
X385000Y165000D02*
D03*
X360000D02*
D03*
X330000D02*
D03*
X292000Y141250D02*
D03*
X670000Y50000D02*
D03*
X625500Y89750D02*
D03*
X600000Y90000D02*
D03*
X575000D02*
D03*
X550000D02*
D03*
X520000D02*
D03*
X490000Y20000D02*
D03*
X380000Y90000D02*
D03*
X445000Y75000D02*
D03*
X385000D02*
D03*
X330000Y40000D02*
D03*
X295000Y70000D02*
D03*
X170000Y105000D02*
D03*
X250000Y25000D02*
D03*
X100000Y525000D02*
D03*
X150000Y400000D02*
D03*
X100000Y375000D02*
D03*
X200000Y400000D02*
D03*
X675000Y300000D02*
D03*
X650000Y325000D02*
D03*
Y400000D02*
D03*
Y500000D02*
D03*
Y450000D02*
D03*
X625000Y425000D02*
D03*
X475000Y475000D02*
D03*
Y425000D02*
D03*
X375000Y450000D02*
D03*
X400000Y475000D02*
D03*
X425000Y425000D02*
D03*
X525000Y475000D02*
D03*
Y425000D02*
D03*
Y275000D02*
D03*
X500000Y250000D02*
D03*
X450000Y200000D02*
D03*
X400000Y275000D02*
D03*
X375000Y200000D02*
D03*
X600000Y155000D02*
D03*
X675000Y100000D02*
D03*
X650000Y125000D02*
D03*
X641250Y54750D02*
D03*
X625000Y50000D02*
D03*
X575000D02*
D03*
X525000D02*
D03*
X550000D02*
D03*
X600000D02*
D03*
X200000Y25000D02*
D03*
X250000Y50000D02*
D03*
X225000Y125000D02*
D03*
Y75000D02*
D03*
Y175000D02*
D03*
X200000Y200000D02*
D03*
X175000Y225000D02*
D03*
Y150000D02*
D03*
X125000Y75000D02*
D03*
Y150000D02*
D03*
X100000Y125000D02*
D03*
X75000Y150000D02*
D03*
X100000Y25000D02*
D03*
X25000Y50000D02*
D03*
X50000Y75000D02*
D03*
X25000Y100000D02*
D03*
X50000Y125000D02*
D03*
X25000Y150000D02*
D03*
Y250000D02*
D03*
Y300000D02*
D03*
X50000Y325000D02*
D03*
X75000Y350000D02*
D03*
X50000Y375000D02*
D03*
X75000Y400000D02*
D03*
X79250Y454750D02*
D03*
X50000Y425000D02*
D03*
X46250Y474500D02*
D03*
X199000Y275500D02*
D03*
X344500Y484500D02*
D03*
X319750D02*
D03*
X283500Y298750D02*
D03*
X326250Y288250D02*
D03*
X326125Y268625D02*
D03*
X225500Y138000D02*
D03*
X135000Y228500D02*
D03*
X493500Y156750D02*
D03*
X462500Y257000D02*
D03*
X96500Y176500D02*
D03*
X450250Y381000D02*
D03*
X484500Y364000D02*
D03*
X424000Y363000D02*
D03*
X511000Y328250D02*
D03*
X445500Y346000D02*
D03*
X430500Y292500D02*
D03*
X400750Y328000D02*
D03*
X386500D02*
D03*
X349500Y328500D02*
D03*
X298500Y299000D02*
D03*
X670000Y191000D02*
D03*
X466000Y215500D02*
D03*
X465000Y279000D02*
D03*
X470250Y75500D02*
D03*
X417750Y242000D02*
D03*
X324000Y260000D02*
D03*
X455300Y157000D02*
D03*
X415000Y75000D02*
D03*
X286000Y402000D02*
D03*
X137250Y448000D02*
D03*
X240250Y398250D02*
D03*
X270750Y312500D02*
D03*
X241000Y288000D02*
D03*
X264750Y68000D02*
D03*
X218000Y260000D02*
D03*
X200000Y152500D02*
D03*
X180250Y303500D02*
D03*
X168500Y170000D02*
D03*
X108750Y313500D02*
D03*
X46750Y274000D02*
D03*
X499250Y397250D02*
D03*
X671250Y211500D02*
D03*
X481000Y221750D02*
D03*
X380250Y309500D02*
D03*
X224375Y302500D02*
D03*
X123125Y180375D02*
D03*
X248000Y439500D02*
D03*
X269750Y473250D02*
D03*
X203750Y327250D02*
D03*
Y367250D02*
D03*
X326500Y340000D02*
D03*
X313750Y475750D02*
D03*
X132000Y468500D02*
D03*
X391500Y372250D02*
D03*
X398500Y418750D02*
D03*
X362250Y248000D02*
D03*
X678250Y222000D02*
D03*
X433000Y493000D02*
D03*
M02*
