G04*
G04 #@! TF.GenerationSoftware,Altium Limited,Altium Designer,25.5.2 (35)*
G04*
G04 Layer_Color=16711935*
%FSLAX44Y44*%
%MOMM*%
G71*
G04*
G04 #@! TF.SameCoordinates,36E1A225-4DC9-43DF-9F0C-FC386396E2DA*
G04*
G04*
G04 #@! TF.FilePolarity,Negative*
G04*
G01*
G75*
%ADD61C,1.7000*%
%ADD62R,1.7000X1.7000*%
%ADD63R,1.7000X1.7000*%
%ADD64C,1.9000*%
%ADD65R,1.9000X1.9000*%
%ADD66R,2.1000X4.3000*%
%ADD67R,4.3000X2.1000*%
%ADD68C,1.6000*%
%ADD69C,3.1000*%
%ADD70C,0.1000*%
%ADD71C,0.8000*%
D61*
X159600Y447300D02*
D03*
Y472700D02*
D03*
X185000Y447300D02*
D03*
Y472700D02*
D03*
X210400Y447300D02*
D03*
X654200Y280400D02*
D03*
X628800Y255000D02*
D03*
X654200D02*
D03*
X628800Y229600D02*
D03*
X654200D02*
D03*
X539240Y22760D02*
D03*
X564640D02*
D03*
X590040D02*
D03*
X615440D02*
D03*
X640840D02*
D03*
X581850Y511750D02*
D03*
X556450D02*
D03*
X531050D02*
D03*
X505650D02*
D03*
X480250Y511750D02*
D03*
X454850D02*
D03*
X607250Y511750D02*
D03*
X343840Y22760D02*
D03*
X369240D02*
D03*
X318440D02*
D03*
X394640D02*
D03*
X420040D02*
D03*
X445440Y22760D02*
D03*
X470840D02*
D03*
X237499Y511750D02*
D03*
X288299Y511749D02*
D03*
X389899D02*
D03*
X364499D02*
D03*
X339099D02*
D03*
X313699D02*
D03*
X212101Y511751D02*
D03*
X186701D02*
D03*
X262899Y511750D02*
D03*
D62*
X210400Y472700D02*
D03*
D63*
X628800Y280400D02*
D03*
X513840Y22760D02*
D03*
X632650Y511750D02*
D03*
X293040Y22760D02*
D03*
X415299Y511749D02*
D03*
D64*
X455300Y106650D02*
D03*
X404500D02*
D03*
X556900Y182850D02*
D03*
X531500D02*
D03*
X506100D02*
D03*
X429900D02*
D03*
X404500D02*
D03*
X379100D02*
D03*
X353700D02*
D03*
X328300D02*
D03*
X302900D02*
D03*
Y106650D02*
D03*
X328300D02*
D03*
X353700D02*
D03*
X379100D02*
D03*
X506100D02*
D03*
X531500D02*
D03*
X556900D02*
D03*
X582300D02*
D03*
X607700D02*
D03*
X633100D02*
D03*
X429900D02*
D03*
X480700Y182850D02*
D03*
X582300D02*
D03*
X607700D02*
D03*
X455300D02*
D03*
X480700Y106650D02*
D03*
D65*
X633100Y182850D02*
D03*
D66*
X139000Y101750D02*
D03*
X79000D02*
D03*
D67*
X110500Y55750D02*
D03*
D68*
X151550Y337250D02*
D03*
Y362250D02*
D03*
X131550Y362250D02*
D03*
Y337250D02*
D03*
D69*
X104450Y409950D02*
D03*
Y289550D02*
D03*
D70*
X139700Y508000D02*
D03*
Y25400D02*
D03*
X660400Y76200D02*
D03*
Y355600D02*
D03*
D71*
X267995Y352994D02*
D03*
X267996Y338988D02*
D03*
X282002Y338989D02*
D03*
X296007Y338989D02*
D03*
X282001Y352994D02*
D03*
X267994Y366999D02*
D03*
X282000Y367000D02*
D03*
X296007Y352995D02*
D03*
X296006Y367001D02*
D03*
M02*
